<svg width="29" height="28" viewBox="0 0 29 28" fill="none" xmlns="http://www.w3.org/2000/svg">
<mask id="mask0_364_57" style="mask-type:luminance" maskUnits="userSpaceOnUse" x="0" y="0" width="29" height="28">
<path d="M0.920898 0H28.9209V28H0.920898V0Z" fill="white"/>
</mask>
<g mask="url(#mask0_364_57)">
<path fill-rule="evenodd" clip-rule="evenodd" d="M14.9209 0C7.1859 0 0.920898 6.265 0.920898 14C0.920898 20.195 4.9284 25.4275 10.4934 27.2825C11.1934 27.405 11.4559 26.985 11.4559 26.6175C11.4559 26.285 11.4384 25.1825 11.4384 24.01C7.9209 24.6575 7.0109 23.1525 6.7309 22.365C6.5734 21.9625 5.8909 20.72 5.2959 20.3875C4.8059 20.125 4.1059 19.4775 5.2784 19.46C6.3809 19.4425 7.1684 20.475 7.4309 20.895C8.6909 23.0125 10.7034 22.4175 11.5084 22.05C11.6309 21.14 11.9984 20.5275 12.4009 20.1775C9.2859 19.8275 6.0309 18.62 6.0309 13.265C6.0309 11.7425 6.5734 10.4825 7.4659 9.5025C7.3259 9.1525 6.8359 7.7175 7.6059 5.7925C7.6059 5.7925 8.7784 5.425 11.4559 7.2275C12.5759 6.9125 13.7659 6.755 14.9559 6.755C16.1459 6.755 17.3359 6.9125 18.4559 7.2275C21.1334 5.4075 22.3059 5.7925 22.3059 5.7925C23.0759 7.7175 22.5859 9.1525 22.4459 9.5025C23.3384 10.4825 23.8809 11.725 23.8809 13.265C23.8809 18.6375 20.6084 19.8275 17.4934 20.1775C18.0009 20.615 18.4384 21.455 18.4384 22.7675C18.4384 24.64 18.4209 26.145 18.4209 26.6175C18.4209 26.985 18.6834 27.4225 19.3834 27.2825C22.1626 26.3442 24.5776 24.558 26.2885 22.1753C27.9994 19.7926 28.9201 16.9333 28.9209 14C28.9209 6.265 22.6559 0 14.9209 0Z" fill="white"/>
</g>
</svg>
