<svg width="29" height="28" viewBox="0 0 29 28" fill="none" xmlns="http://www.w3.org/2000/svg">
<g clip-path="url(#clip0_363_29)">
<path d="M10.3232 0.920933C7.5256 1.89146 5.11292 3.73355 3.43959 6.17663C1.76626 8.6197 0.920465 11.535 1.02645 14.4943C1.13244 17.4536 2.18461 20.3009 4.02843 22.618C5.87225 24.9351 8.41052 26.5999 11.2704 27.3678C13.589 27.9661 16.0182 27.9924 18.3492 27.4444C20.4608 26.9701 22.4131 25.9555 24.0148 24.5C25.6818 22.9389 26.8919 20.9529 27.5148 18.7556C28.1916 16.3661 28.3121 13.8533 27.867 11.41H14.847V16.8109H22.3873C22.2366 17.6723 21.9137 18.4945 21.4378 19.2282C20.962 19.9619 20.343 20.592 19.6179 21.0809C18.6973 21.6902 17.6593 22.1001 16.5707 22.2841C15.4791 22.4871 14.3593 22.4871 13.2676 22.2841C12.1611 22.0555 11.1143 21.5988 10.1942 20.9431C8.71574 19.8966 7.60565 18.4098 7.0223 16.695C6.42924 14.948 6.42924 13.0542 7.0223 11.3072C7.43754 10.0827 8.12399 8.96773 9.03042 8.04562C10.0677 6.971 11.381 6.20286 12.8261 5.82548C14.2712 5.44809 15.7923 5.47603 17.2226 5.90625C18.34 6.24908 19.3617 6.84835 20.2064 7.65625C21.0566 6.81041 21.9053 5.96239 22.7526 5.11218C23.1901 4.655 23.667 4.21968 24.0979 3.75156C22.8085 2.55175 21.295 1.6181 19.6442 1.00406C16.6379 -0.0875264 13.3485 -0.116862 10.3232 0.920933Z" fill="#F7F8FD"/>
<path d="M10.3232 0.920928C13.3482 -0.117572 16.6376 -0.0890089 19.6441 1.00187C21.2952 1.62008 22.808 2.55823 24.0957 3.76249C23.6582 4.23062 23.1966 4.66812 22.7504 5.12312C21.9016 5.97041 21.0536 6.81478 20.2063 7.65624C19.3617 6.84835 18.3399 6.24907 17.2225 5.90624C15.7927 5.47452 14.2716 5.44496 12.8261 5.8208C11.3806 6.19665 10.0666 6.96338 9.02816 8.03687C8.12174 8.95897 7.43528 10.0739 7.02004 11.2984L2.48535 7.78749C4.10849 4.56872 6.91887 2.10661 10.3232 0.920928Z" fill="#E33629"/>
<path d="M1.28199 11.2656C1.52554 10.0576 1.9302 8.8878 2.48511 7.78751L7.0198 11.3072C6.42674 13.0542 6.42674 14.948 7.0198 16.695C5.50896 17.8617 3.9974 19.0342 2.48511 20.2125C1.09638 17.4482 0.672839 14.2986 1.28199 11.2656Z" fill="#F8BD00"/>
<path d="M14.8467 11.4078H27.8667C28.3118 13.8511 28.1913 16.3639 27.5145 18.7534C26.8916 20.9507 25.6815 22.9367 24.0145 24.4978C22.5511 23.3559 21.0811 22.2228 19.6176 21.0809C20.3432 20.5915 20.9624 19.9607 21.4383 19.2262C21.9142 18.4917 22.2368 17.6687 22.387 16.8066H14.8467C14.8445 15.0084 14.8467 13.2081 14.8467 11.4078Z" fill="#587DBD"/>
<path d="M2.4834 20.2125C3.99569 19.0458 5.50725 17.8733 7.01809 16.695C7.6026 18.4104 8.71428 19.8973 10.1943 20.9431C11.1174 21.5958 12.1664 22.0488 13.2743 22.2731C14.366 22.4762 15.4858 22.4762 16.5775 22.2731C17.666 22.0891 18.704 21.6793 19.6246 21.07C21.0881 22.2119 22.5581 23.345 24.0215 24.4869C22.42 25.9432 20.4678 26.9585 18.3559 27.4334C16.0249 27.9814 13.5957 27.9552 11.2771 27.3569C9.44337 26.8673 7.7305 26.0041 6.2459 24.8216C4.67468 23.5739 3.39129 22.0017 2.4834 20.2125Z" fill="#319F43"/>
</g>
<defs>
<clipPath id="clip0_363_29">
<rect width="28" height="28" fill="white" transform="translate(0.569336)"/>
</clipPath>
</defs>
</svg>
