<svg width="45" height="86" viewBox="0 0 45 86" fill="none" xmlns="http://www.w3.org/2000/svg">
<path d="M30.7239 73.6652C29.9516 74.1927 29.3197 74.6101 28.4231 74.7931C28.3906 74.7995 28.3644 74.8186 28.3445 74.8505C28.2774 74.9589 28.2725 75.0742 28.3295 75.1962C28.2632 75.7176 28.2303 76.1781 28.231 76.5776C28.232 77.3646 27.9792 77.4699 27.5702 77.9638C27.0508 78.5918 26.4586 79.7244 26.5412 80.6753C26.5054 80.9249 26.5396 81.194 26.6437 81.4827C26.8915 82.1704 27.4647 82.8737 28.1355 82.8593C28.8997 82.8434 29.595 82.8972 30.2213 83.0208C31.0904 83.1914 31.9482 83.3629 32.7948 83.5351C33.6247 83.697 34.4477 83.8437 35.2637 83.9752C35.6548 84.0386 36.0907 84.0458 36.5067 84.0984C36.5106 84.099 36.5145 84.0984 36.5181 84.0967C36.5217 84.095 36.525 84.0923 36.5275 84.0887C36.5301 84.0852 36.5319 84.081 36.5327 84.0764C36.5336 84.0718 36.5336 84.0671 36.5326 84.0626C36.5279 84.0442 36.5153 84.0299 36.4947 84.0195C35.7563 83.6475 34.8846 83.26 34.2517 82.6667C34.2311 82.6524 34.2487 82.6329 34.3044 82.6081C34.9426 82.9159 35.6031 83.1209 36.2858 83.2229C36.6639 83.2963 37.0235 83.3194 37.3645 83.2923C37.7632 83.2596 38.5341 83.1659 39.6772 83.0112L43.1344 82.9909C43.2021 82.9909 43.2286 83.0304 43.214 83.1093L43.2041 83.1619C43.2013 83.1778 43.1939 83.192 43.1832 83.202C43.1724 83.2121 43.1591 83.2173 43.1453 83.2169C42.74 83.2018 42.4736 83.2122 42.3462 83.248C42.2348 83.2791 42.2139 83.4394 42.182 83.5494C42.1721 83.5839 42.1537 83.6139 42.1292 83.6354C42.1046 83.657 42.0752 83.6692 42.0447 83.6702C41.4489 83.6926 40.8568 83.7635 40.2684 83.8831C39.5837 84.0231 38.8831 84.0506 38.1915 84.1953C37.8282 84.2719 37.5715 84.5637 37.2063 84.6307C37.0182 84.6654 36.8401 84.6594 36.6609 84.7575C36.2463 84.9815 35.8671 85.0565 35.5235 84.9823C34.8239 84.8316 34.181 84.7108 33.4307 84.6678C32.8813 84.6359 32.3327 84.5872 31.7847 84.5218C30.9527 84.4226 29.9855 84.4561 29.1047 84.2958C28.9425 84.2671 28.8042 84.1295 28.6609 84.0793C28.5302 84.033 28.3989 83.9904 28.2668 83.9513C27.9812 83.8676 27.7304 83.7085 27.4518 83.5937C26.7811 83.321 26.5631 82.6943 26.183 82.0723C26.1081 81.9504 26.0679 81.8027 26.0685 81.6513C26.0705 81.3068 26.0702 80.9448 26.0675 80.5653C26.0656 80.2894 26.0977 80.0302 26.1641 79.7878C26.32 79.2217 26.447 78.8609 26.5452 78.7054C26.7731 78.3442 26.9433 77.9052 27.217 77.6301C27.3868 77.4595 27.5659 77.318 27.7543 77.2055C27.7978 77.1793 27.8347 77.1397 27.8613 77.0908C27.8879 77.0418 27.9032 76.9852 27.9056 76.9268L27.9981 74.6412C28.0001 74.5949 27.9822 74.569 27.9444 74.5634C26.6892 74.3577 25.5043 73.8948 24.3897 73.1748C23.9605 72.8973 23.5319 72.6178 23.104 72.3364C21.8471 71.5087 20.3922 73.2107 19.5991 74.1699C19.5732 74.201 19.5589 74.2381 19.5563 74.2812C19.5035 75.1136 19.7274 76.2116 19.9155 77.0273C19.9238 77.0627 19.9391 77.0951 19.9601 77.1218C19.9811 77.1485 20.0071 77.1686 20.0359 77.1804C20.3192 77.2968 20.5916 77.4579 20.853 77.6636C21.0334 77.8064 21.2026 78.0089 21.3605 78.2712C21.7857 78.9793 22.0475 79.4414 22.1457 79.6575C22.2545 79.8967 22.3563 80.3193 22.4512 80.9253C22.4571 80.9628 22.4551 80.9994 22.4452 81.0353C22.3099 81.5257 22.2163 82.0819 21.87 82.522C21.663 82.7864 21.462 83.2014 21.2331 83.3294C20.9973 83.4609 20.8211 83.6714 20.5614 83.6894C19.7623 83.7456 19.0955 83.742 18.2725 84.1092C17.8784 84.285 17.4754 84.6486 16.9131 84.6821C16.5761 84.702 16.3625 84.7212 16.2723 84.7395C15.511 84.8998 14.3705 85.2646 13.6341 84.9201C13.4364 84.8268 13.2298 84.7858 13.0141 84.7969C12.9803 84.7985 12.9485 84.7906 12.9186 84.773C12.6413 84.6127 12.3311 84.5326 11.9881 84.5326C10.4457 84.5302 8.90317 84.5294 7.36069 84.5302C7.1527 84.5302 6.99646 84.5075 6.81634 84.358C6.476 84.0733 6.26072 83.87 6.17049 83.748C5.80427 83.2528 5.32162 82.644 4.79817 82.6333C3.71213 82.6085 2.65163 82.6057 1.61667 82.6249C1.549 82.6265 1.51484 82.5866 1.51417 82.5053V82.4419C1.51364 82.3964 1.52809 82.3525 1.55438 82.3198C1.58067 82.2871 1.61666 82.2682 1.65449 82.2673L3.35918 82.2218C5.00417 82.2577 6.99149 82.4897 8.80764 82.2206C9.98922 81.9455 10.988 81.2941 11.804 80.2663C11.8273 80.2368 11.8329 80.2411 11.821 80.2794C11.4279 81.5257 10.382 81.912 9.52116 82.7014C9.49661 82.7246 9.46908 82.7369 9.43857 82.7385C9.23157 82.7529 9.02956 82.894 8.77778 83.0411C8.62387 83.1312 8.46332 83.1938 8.29613 83.2289C7.81448 83.3294 7.31989 83.4717 6.83226 83.5231C6.82364 83.5239 6.81966 83.5295 6.82032 83.5399C6.82099 83.551 6.82563 83.5562 6.83425 83.5554C8.16311 83.4669 9.44221 83.1193 10.6716 82.5125C11.1612 82.2709 11.6551 82.0416 12.1533 81.8247C12.3364 81.745 12.5272 81.7031 12.7256 81.6991C12.77 81.6983 12.775 81.7147 12.7405 81.7482C11.7851 82.6895 10.4287 83.3928 9.30721 83.8389C9.29991 83.8413 9.29626 83.8437 9.29626 83.8437C9.29692 83.8548 9.29759 83.8656 9.29825 83.876C9.29891 83.8855 9.30322 83.8899 9.31119 83.8891C9.98888 83.8269 10.7343 83.8293 11.3463 83.748C12.1749 83.638 12.9959 83.4693 13.8093 83.2421C13.9141 83.2133 14.1443 83.2229 14.4999 83.2708C14.691 83.2963 15.0452 83.2744 15.5627 83.205C15.6065 83.1938 15.6274 83.2078 15.6254 83.2468C15.4543 83.3019 15.3388 83.4418 15.1786 83.4861C14.3254 83.7213 13.5028 83.9561 12.7106 84.1905C12.5799 84.2296 12.5816 84.2563 12.7156 84.2707C12.8808 84.289 13.0447 84.3253 13.2072 84.3795C13.4779 84.4696 13.8925 84.5091 14.4511 84.4979C14.9753 84.4876 15.6195 84.3552 16.3837 84.1008C17.3915 83.7667 18.3306 83.3238 19.201 82.772L19.0497 83.0495C19.0398 83.0673 19.0345 83.0883 19.0346 83.1098C19.0347 83.1313 19.0401 83.1522 19.0501 83.17C19.0602 83.1877 19.0744 83.2015 19.091 83.2094C19.1076 83.2173 19.1258 83.2191 19.1433 83.2145C19.9971 82.9849 20.7783 82.1225 20.631 80.9648C20.6257 80.9217 20.6105 80.8699 20.5853 80.8093C20.5534 80.7335 20.5455 80.6769 20.5614 80.6394L20.7524 80.9468C20.9084 81.6645 20.8234 82.3948 20.4977 83.138C20.4967 83.1394 20.4962 83.1412 20.4963 83.1429C20.4965 83.1447 20.4972 83.1463 20.4984 83.1475C20.4996 83.1486 20.5013 83.1493 20.503 83.1493C20.5047 83.1493 20.5063 83.1487 20.5076 83.1476C20.9024 82.7561 21.1956 82.2784 21.3874 81.7147C21.4597 81.5034 21.4985 81.241 21.5038 80.9277C21.5078 80.6701 21.5144 80.3998 21.5237 80.1168L21.8391 80.826C21.861 80.8763 21.877 80.8735 21.8869 80.8176C21.8929 80.7826 21.8922 80.7463 21.8849 80.7088C21.6003 79.2041 20.8908 78.1313 19.7563 77.4902C19.6919 77.4535 19.6422 77.3877 19.618 77.3072C19.3718 76.4891 19.2023 75.6483 19.1094 74.7847C19.1083 74.7742 19.1042 74.7644 19.0977 74.757C19.0911 74.7496 19.0827 74.745 19.0736 74.744C17.7819 74.6244 16.8594 74.0348 15.7976 73.2071C15.7697 73.1848 15.7538 73.1935 15.7498 73.2334C15.7279 73.4487 15.7273 73.605 15.7478 73.7023C15.9336 74.5802 16.0656 75.4728 16.1439 76.3802C16.1479 76.4281 16.1698 76.4476 16.2096 76.4389L17.8118 76.0717L18.3561 76.0944C17.2246 76.397 16.1887 76.5345 15.2244 77.2928C15.2184 77.2976 15.2118 77.2988 15.2045 77.2964C15.1945 77.294 15.1842 77.2917 15.1736 77.2893C15.1497 77.2837 15.1461 77.2697 15.1627 77.2474C15.3338 77.0265 15.5564 76.8084 15.8304 76.5931C15.8669 76.5644 15.8798 76.5282 15.8692 76.4843C15.8613 76.4508 15.843 76.4385 15.8145 76.4472C15.165 76.6522 14.5659 76.9783 14.0173 77.4256L13.6411 77.507C13.3037 77.4794 12.9783 77.4459 12.6489 77.5476C11.7566 77.8243 10.9456 78.3059 10.2158 78.9924C9.57391 79.5977 8.938 80.344 8.27722 80.783C7.60583 81.2279 6.89263 81.5508 6.13765 81.7518C5.03502 82.0197 4.26577 82.0101 3.29948 82.0986C2.95217 82.1082 2.70836 82.1357 2.25755 82.1512C2.08771 82.1576 1.89897 82.1883 1.69131 82.2433C1.66123 82.2511 1.62998 82.2451 1.60374 82.2266C1.4392 82.1134 1.44286 82.0472 1.61468 82.0281C2.4055 81.9411 3.19797 81.8973 3.9921 81.8965C4.77827 81.8965 5.45497 81.7314 6.20333 81.5759C6.85714 81.4396 7.30595 81.1681 7.78562 80.6849C7.87518 80.5948 8.0145 80.4823 8.20358 80.3476C8.46531 80.1598 8.63747 79.856 8.83351 79.6634C9.15329 79.3493 9.47539 79.0391 9.79981 78.7329C9.98789 78.5571 10.3272 78.3119 10.571 78.0667C10.6792 77.9583 10.784 77.8745 10.8855 77.8155C11.819 77.2749 12.5862 76.8969 13.6043 76.9699C13.7283 76.9795 13.8431 76.946 13.9486 76.8694C14.4893 76.4771 15.0615 76.1658 15.6652 75.9353C15.6971 75.9234 15.711 75.8974 15.707 75.8576C15.5826 74.6627 15.2522 73.6652 14.9149 72.6019C14.8306 72.3356 14.6969 72.1115 14.5138 71.9297C13.1584 70.5853 11.9298 69.0907 10.8278 67.4457C10.7396 67.3141 10.6596 67.1754 10.588 67.0294C10.5801 67.0131 10.576 66.9945 10.576 66.9756C10.576 66.9567 10.5801 66.9382 10.588 66.9218C11.1701 65.7401 11.1293 64.7557 11.0328 63.452C11.0069 63.0992 10.9412 62.9078 10.7372 62.6303C9.88439 61.4737 9.06936 60.3506 8.43446 59.0517C8.2205 58.6152 8.5907 58.1415 8.74494 57.748C8.7642 57.6988 8.77284 57.6445 8.77005 57.5899C8.76727 57.5354 8.75317 57.4824 8.72902 57.4358C8.5081 57.0089 8.22846 56.6512 8.61856 56.1788C9.32014 55.3296 10.7293 53.5379 10.3511 52.2402C10.1899 51.6876 10.0546 51.2103 10.161 50.6315C10.1889 50.4792 10.3103 50.1769 10.5253 49.7248C11.1691 48.3757 11.2766 46.7957 11.3333 45.2719C11.3463 44.9286 11.3582 44.1632 11.1134 43.9311C11.0944 43.913 11.0726 43.8998 11.0491 43.8923C11.0257 43.8849 11.0012 43.8833 10.9773 43.8878C10.9533 43.8923 10.9304 43.9028 10.91 43.9184C10.8896 43.9341 10.8721 43.9547 10.8586 43.979C10.3382 44.9262 9.78388 46.0326 8.93104 46.4775C8.41356 46.7478 7.69705 47.0349 7.53981 47.4176C7.13877 48.3936 6.73972 49.3289 6.03117 50.0406C4.9156 51.1625 3.36317 50.5716 2.62775 49.1938C2.42573 48.8146 1.86049 47.9559 1.96796 47.4978C1.97725 47.4579 1.97327 47.4204 1.95602 47.3853C1.62298 46.7163 1.43191 45.9915 1.38281 45.2109C1.37585 45.0901 1.29226 44.9215 1.21065 44.821C0.340891 43.7565 -0.194501 42.6753 0.0662291 41.1287C0.127928 40.7651 0.294119 40.4087 0.43344 40.0631C0.518028 39.8537 0.485188 39.6588 0.47026 39.4375C0.407234 38.515 0.687533 37.7965 1.31116 37.2822C1.4067 37.2041 1.46442 37.0956 1.48432 36.9569C1.64752 35.823 2.1451 34.7645 3.25668 34.9918C3.57182 35.0563 3.85012 35.0583 4.09161 34.9977C4.8738 34.8016 5.48781 34.8745 6.13964 35.4726C6.17016 35.5005 6.19504 35.4945 6.21428 35.4546C6.89794 34.0684 7.36965 32.5709 7.53882 30.9694C7.71098 29.3356 7.74183 27.4937 9.35199 26.8932C10.5213 26.4579 11.6637 26.1672 12.9315 25.617C13.665 25.3001 13.6928 24.5992 14.2043 24.0095C14.7377 23.3936 15.507 23.0874 16.1638 22.8075C16.3363 22.7341 16.332 22.6831 16.1509 22.6544C14.8233 22.4415 13.2779 22.2047 12.419 20.8304C11.6578 19.6116 11.7264 18.0615 11.9901 16.6442C11.9932 16.6281 11.9929 16.6113 11.9894 16.5953C11.9859 16.5794 11.9793 16.5647 11.9701 16.5526C11.9609 16.5404 11.9494 16.5312 11.9366 16.5257C11.9238 16.5202 11.91 16.5186 11.8966 16.521C11.7042 16.5537 11.5022 16.5525 11.2905 16.5174C10.172 16.3316 9.09026 15.9836 8.04535 15.4732C7.65724 15.2843 7.27909 14.9446 7.54479 14.3705C7.5627 14.3314 7.55706 14.2983 7.52787 14.2712C7.41841 14.1707 7.28904 14.0846 7.21241 13.9566C6.46306 12.7103 9.81175 11.1184 10.4616 10.8182C10.4928 10.8038 10.516 10.7787 10.5312 10.7428C10.9512 9.74171 11.9941 9.38648 12.83 8.99537C12.8647 8.97937 12.8947 8.9515 12.9165 8.91517C12.9382 8.87885 12.9507 8.83565 12.9524 8.79085C12.977 8.08278 13.0287 7.36594 13.1077 6.64033C13.3293 4.59267 14.0919 3.01387 15.3955 1.90393C17.2406 0.332302 19.9185 -0.207121 22.1407 0.069169C23.6752 0.260539 24.6564 1.05353 25.4595 2.61319C26.1409 3.93603 26.6676 5.35616 27.0398 6.87356C27.0508 6.91874 27.0732 6.95873 27.1038 6.98807C27.1344 7.0174 27.1719 7.03463 27.211 7.03742C29.0013 7.17497 34.3651 7.76223 34.9493 10.4091C35.0567 10.8987 34.9274 11.3117 34.5612 11.6482C34.5333 11.6738 34.522 11.7072 34.5273 11.7487C34.6229 12.4604 34.183 13.2187 33.772 13.6732C33.634 13.8255 33.4977 13.9861 33.363 14.1552C33.3543 14.1663 33.3432 14.1742 33.3309 14.1782C33.3187 14.1821 33.3058 14.1819 33.2936 14.1776C33.2814 14.1733 33.2705 14.1649 33.262 14.1536C33.2536 14.1423 33.2479 14.1283 33.2456 14.1133L33.2356 14.0523C33.2316 14.0228 33.2204 14.018 33.2018 14.038C32.9285 14.3362 32.5987 14.5901 32.2126 14.7999C30.8061 15.5629 29.3529 15.97 27.8528 16.021C27.819 16.0226 27.7994 16.0434 27.7941 16.0832C27.7384 16.5126 27.7832 16.7829 28.0041 17.1561C28.3474 17.735 28.4629 18.2732 28.2121 18.9586C28.1783 19.0527 28.2005 19.1204 28.2788 19.1619C29.1177 19.6092 30.079 19.8317 30.9717 20.0841C31.9389 20.3568 32.9032 21.1318 33.0177 22.4247C33.159 24.0131 31.7847 24.3169 30.7219 24.2607C29.6962 24.2065 28.7332 23.8883 27.8329 23.3062C27.8191 23.2974 27.8036 23.2925 27.7879 23.2921C27.7722 23.2917 27.7566 23.2957 27.7424 23.3039C27.2388 23.5885 26.7502 23.915 26.2278 24.122C25.9929 24.2152 25.764 24.305 25.5411 24.3911C25.5013 24.4062 25.5006 24.4238 25.5391 24.4437C25.9087 24.6351 26.2228 24.8647 26.4815 25.1326C26.8677 25.5321 27.0488 25.8347 27.618 26.0464C28.2575 26.2832 29.0354 26.4922 29.9516 26.6732C30.3825 26.7581 31.302 27.026 31.6683 27.3513C32.1539 27.7831 32.0006 28.2998 32.2305 28.8476C32.9371 30.5293 33.8636 31.7157 35.0985 32.8987C35.9982 33.759 37.2451 34.7585 38.8393 35.8972C38.9468 35.9745 39.102 36.138 39.3051 36.3876C40.0952 37.3588 38.8244 38.6003 38.9289 39.7413C38.9657 40.148 39.2225 40.5379 39.4026 40.9027C39.4636 41.0271 39.446 41.1467 39.3498 41.2615C38.7773 41.9369 38.3666 42.7311 38.1178 43.6441C37.8352 44.6799 37.5237 45.675 37.2331 46.4883C36.7724 47.7812 36.0778 48.9988 35.3881 50.2057C34.8637 51.1206 35.1264 52.2665 34.3343 53.0463C34.1054 53.2712 33.6436 53.3752 33.4287 53.6922C33.1998 54.0283 33.2366 54.399 33.371 54.8081C33.6065 55.5281 33.912 56.2015 34.2875 56.8282C34.3068 56.8598 34.3186 56.897 34.3217 56.9359C34.3249 56.9749 34.3192 57.0141 34.3054 57.0495C34.0706 57.6655 33.6088 58.4908 33.7282 59.1701C33.8848 60.0664 34.0782 60.9499 34.3084 61.8206C34.7313 63.4185 35.1085 64.5548 36.0091 65.6432C36.0385 65.6784 36.0591 65.7227 36.0688 65.771C36.0785 65.8194 36.0767 65.87 36.0638 65.9171C35.9205 66.4418 35.7374 66.9425 35.5145 67.4194C34.5943 69.3865 33.4307 71.1172 32.0235 72.6115C31.9472 72.6928 31.8895 72.7909 31.8504 72.9057C31.5488 73.798 30.9717 75.2619 31.2881 76.0932C31.3133 76.1586 31.3548 76.1817 31.4125 76.1626C33.0087 75.6279 34.5562 75.4019 36.1614 76.3193C36.6258 76.5848 37.2132 77.0058 37.9238 77.5823C38.229 77.8295 38.5799 78.15 38.9767 78.5439C39.4902 79.0527 39.8385 79.3772 40.0216 79.5175C40.3685 79.7823 40.8193 79.9748 41.374 80.0952C41.5418 80.1319 41.6937 80.1989 41.8298 80.2962C42.2689 80.6111 42.5619 80.7921 42.7085 80.8392C43.5036 81.0963 44.1146 81.1262 44.8351 81.2387C44.8693 81.2438 44.9014 81.2619 44.9267 81.2902C44.9521 81.3185 44.9694 81.3557 44.9764 81.3965L44.9963 81.5197C45.0109 81.605 44.9821 81.6497 44.9097 81.6537C42.1671 81.8032 40.0036 80.3667 37.7815 78.7066C37.54 78.5264 37.0358 78.2577 36.2688 77.9005C36.2576 77.8957 36.2536 77.8865 36.2569 77.8729L36.2579 77.8717C36.2612 77.8582 36.2688 77.8534 36.2808 77.8574C37.3983 78.2126 38.3079 78.752 39.3439 79.4422C39.3538 79.4478 39.3614 79.4454 39.3667 79.435V79.4338C39.3727 79.4226 39.3711 79.4135 39.3618 79.4063C38.8881 79.0235 38.4197 78.63 37.9566 78.2258C37.059 77.4412 36.0857 76.9041 35.0368 76.6147C34.9088 76.5796 34.9098 76.5505 35.0398 76.5274C35.2634 76.4883 35.5172 76.5286 35.8011 76.6482L35.8029 76.6485L35.8041 76.647L35.8121 76.6183C35.8174 76.5991 35.8124 76.586 35.7971 76.5788C34.585 76.0238 33.5133 76.159 32.2604 76.446C31.8175 76.5477 30.9866 76.7056 30.8512 75.976C30.7139 75.238 30.897 74.2549 31.0801 73.5336C31.1073 73.426 31.0811 73.4017 31.0015 73.4607L30.7239 73.6652ZM24.1698 4.77687L24.3071 4.81634L24.4654 4.92398C24.5178 4.95986 24.5145 4.97023 24.4554 4.95508C24.0822 4.857 23.722 4.7362 23.3518 4.70151C21.8312 4.55958 20.3408 4.76132 18.8806 5.30672C18.6968 5.37529 18.5585 5.44307 18.4656 5.51005C18.4437 5.5268 18.4324 5.55231 18.4317 5.5866C18.4311 5.62886 18.448 5.6452 18.4825 5.63564C18.9157 5.50806 19.3496 5.38925 19.7842 5.27921C21.8627 4.74975 23.9243 4.82351 25.969 5.50048C26.0944 5.54274 26.2185 5.59338 26.3412 5.65238C26.3724 5.66673 26.382 5.65517 26.3701 5.6177C25.9813 4.38815 25.4658 3.24471 24.8236 2.18739C24.5529 1.74166 24.3045 1.41832 24.0782 1.21739C23.1348 0.377752 21.4958 0.256951 20.3723 0.35144C18.2954 0.52726 15.8513 1.32503 14.489 3.37867C13.5087 4.85461 13.3744 6.67501 13.2609 8.47867C13.2605 8.48685 13.262 8.49505 13.2653 8.50225C13.2686 8.50945 13.2735 8.51533 13.2794 8.51916C13.2854 8.52299 13.2921 8.5246 13.2987 8.52378C13.3053 8.52296 13.3116 8.51975 13.3167 8.51456C13.7157 8.12344 14.1247 7.72396 14.5636 7.42375C15.6901 6.65349 16.8793 6.19539 18.1282 5.80667C18.1601 5.79711 18.1806 5.77318 18.1899 5.73491C18.2583 5.46779 18.4148 5.27283 18.6596 5.15004C20.3902 4.28528 22.3994 3.9767 24.1698 4.77687ZM20.7246 5.43231L19.2816 5.7086C17.9829 6.02555 16.6654 6.50757 15.4961 7.28859C15.3096 7.41298 15.1617 7.54654 15.0522 7.68927C15.0395 7.70595 15.0312 7.72672 15.0282 7.74903C15.0251 7.77134 15.0276 7.79422 15.0353 7.81486C15.3338 8.60306 15.8752 8.63536 16.5221 8.43681L20.1713 7.46561C20.369 7.48873 20.5445 7.45365 20.6977 7.36036C20.7269 7.34202 20.7581 7.33444 20.7913 7.33763C21.1684 7.36993 21.467 7.18693 21.8272 7.14028C22.5178 7.05058 23.2264 6.82333 23.6802 6.14277C23.7078 6.10182 23.7269 6.05339 23.7357 6.00156C23.7446 5.94973 23.7429 5.89602 23.7309 5.84495L23.6852 5.64999C23.6808 5.632 23.6732 5.61532 23.6629 5.60108C23.6526 5.58684 23.6398 5.57538 23.6254 5.56746C23.4175 5.45742 23.2592 5.38207 23.0094 5.34739C22.5387 5.2816 22.1068 5.19429 21.5466 5.32107C21.2759 5.38207 20.9992 5.36293 20.7246 5.43231ZM26.8119 7.23357L26.4925 6.42025C26.4865 6.4051 26.4842 6.4059 26.4855 6.42264C26.5067 6.7384 26.6033 7.01509 26.7751 7.25271C26.7791 7.25909 26.7837 7.25989 26.789 7.2551L26.8109 7.23955C26.8123 7.23796 26.8126 7.23597 26.8119 7.23357ZM31.9489 9.38648C32.7858 9.83501 33.774 10.3445 34.0745 11.2703L34.1094 11.4425C34.1173 11.4808 34.1346 11.4888 34.1611 11.4664C34.9871 10.7596 34.189 9.78477 33.6267 9.39246C32.9255 8.90288 32.1386 8.53808 31.2662 8.29807C27.8817 7.36514 24.2335 7.18214 20.8957 7.57565C20.0897 7.67133 19.3224 7.75386 18.5313 7.97992C16.8156 8.4719 15.103 9.01451 13.3933 9.60776C13.2938 9.64284 13.2563 9.72098 13.2808 9.84218L13.3356 10.1065C13.3608 10.2269 13.4228 10.2692 13.5217 10.2333C14.9792 9.70623 16.1187 9.32668 16.94 9.09464C19.1075 8.48226 20.7106 8.14976 22.5984 8.07919C25.8526 7.95958 28.9555 8.1366 31.9489 9.38648ZM12.1971 11.0251L11.5314 10.8708C11.118 10.9489 10.6387 11.1212 10.0934 11.3875C9.65352 11.6016 6.97457 12.9388 7.59654 13.7102C7.90636 13.9606 8.23974 14.1779 8.59667 14.3621C8.69419 14.4123 8.76684 14.4781 8.87531 14.404C9.41534 14.034 9.94874 13.7529 10.4755 13.5607C10.988 13.373 12.0021 12.946 12.3564 12.4651C12.4897 12.2857 12.6529 11.7391 12.4658 11.5011L12.4509 11.4234C12.4277 11.3971 12.4224 11.3743 12.435 11.3552C12.4378 11.351 12.4415 11.3477 12.4457 11.3456C12.4499 11.3435 12.4544 11.3426 12.4589 11.3431C12.4634 11.3436 12.4678 11.3454 12.4716 11.3483C12.4754 11.3512 12.4785 11.3553 12.4807 11.36C12.5852 11.5848 12.7166 11.6877 12.9415 11.6171C15.4612 10.8242 17.4913 10.2584 19.5513 10.14C20.1378 10.1065 21.0855 10.1197 22.3944 10.1795C23.2483 10.3118 23.9674 10.4554 24.5519 10.6101C25.6406 10.8971 26.6464 11.4485 27.5692 12.2642C27.6714 12.4149 27.8396 12.6362 28.0738 12.928C28.6918 13.6983 28.5365 14.6288 28.0569 15.4266C28.0323 15.4681 28.0403 15.4804 28.0807 15.4637C29.3585 14.9362 30.3726 14.3705 31.0035 12.9507C31.0201 12.8726 31.0599 12.8519 31.1229 12.8886C31.1097 13.3446 30.9657 13.7609 30.691 14.1372C29.9875 14.9278 28.9216 15.3321 28.0101 15.6586C27.9942 15.6642 27.9885 15.6766 27.9932 15.6957L28.0001 15.728C28.0041 15.7431 28.0124 15.7483 28.025 15.7436C28.2566 15.6638 28.6536 15.5837 29.2162 15.5031C29.8325 15.4146 30.5421 15.124 31.3448 14.6312C31.4749 14.5515 31.6351 14.4211 31.8255 14.2401C32.1141 13.849 32.3669 13.5141 32.5728 13.0452C32.5855 13.0261 32.6047 13.0137 32.6306 13.0082C32.6226 13.4427 32.5065 13.8275 32.2823 14.1624C32.2736 14.1751 32.2746 14.1867 32.2853 14.197V14.1982C32.2932 14.2062 32.3018 14.205 32.3111 14.1946C32.5851 13.8677 32.8057 13.4954 32.9729 13.0775C33.0585 12.8638 33.089 12.8746 33.0645 13.1098C33.0426 13.3132 32.9676 13.5101 32.8396 13.7007C32.7128 13.8881 32.7234 13.9 32.8714 13.7366C33.3132 13.2498 33.4008 12.1374 33.2257 11.5143C33.2222 11.5023 33.2227 11.4892 33.227 11.4776C33.2313 11.466 33.239 11.4568 33.2487 11.4518C33.2584 11.4468 33.2693 11.4464 33.2793 11.4506C33.2892 11.4549 33.2974 11.4635 33.3023 11.4748C33.5849 12.1143 33.6582 12.6414 33.5222 13.056C33.3829 13.4818 33.4094 13.493 33.6018 13.0895C33.9203 12.4197 33.9146 11.7352 33.5849 11.0359C33.2028 10.2249 32.0424 9.70344 31.3418 9.42715C29.2978 8.62101 27.3354 8.39017 25.1988 8.27534C23.0738 8.16212 20.9657 8.32717 18.8746 8.77051C18.4944 8.85184 18.0665 8.987 17.6625 9.09106C16.1306 9.48177 14.6336 10.012 13.1714 10.6818C12.8529 10.8277 12.5305 10.9139 12.1971 11.0251ZM12.7305 9.48217C12.1504 9.71779 11.3532 9.9881 10.9223 10.5072C10.7863 10.6707 10.8092 10.7137 10.991 10.6364C11.5642 10.3932 12.1543 10.25 12.7614 10.207C12.7985 10.2038 12.8164 10.1799 12.8151 10.1352L12.7962 9.53599C12.7961 9.52678 12.7941 9.51775 12.7904 9.50964C12.7867 9.50153 12.7815 9.49458 12.7751 9.48933C12.7687 9.48409 12.7613 9.48071 12.7536 9.47946C12.7458 9.47822 12.7379 9.47915 12.7305 9.48217ZM22.9258 12.5919C22.6519 11.8017 22.2117 11.2452 21.6053 10.9222L20.8141 10.6519C20.704 10.6144 20.699 10.6296 20.7992 10.6974C21.5854 11.2308 22.1486 12.275 22.4591 13.2761C22.7268 14.1372 22.7467 15.1886 22.9328 16.2375C22.9448 16.3069 22.9584 16.3073 22.9736 16.2387C23.0718 15.7906 23.1415 15.3811 23.1826 15.0104C23.2781 14.1492 23.1925 13.3431 22.9258 12.5919ZM21.4162 13.1134C21.2722 12.7681 21.1445 12.5178 21.0331 12.3623C20.8918 12.1637 20.4161 11.5657 20.0668 11.4509C20.0641 11.4496 20.0612 11.4496 20.0585 11.4508C20.0559 11.4521 20.0538 11.4545 20.0524 11.4576C20.0511 11.4608 20.0508 11.4644 20.0514 11.468C20.052 11.4716 20.0536 11.4749 20.0558 11.4772C20.4101 11.8296 20.7166 12.1809 20.9754 12.5309C21.9436 13.8394 22.08 15.4505 22.3397 17.0676C22.355 17.1617 22.3706 17.1617 22.3865 17.0676C22.4031 16.9679 22.41 16.8503 22.4074 16.7148C22.3875 15.7435 22.2803 14.7871 22.0859 13.8454C21.7655 12.2929 20.8171 10.5215 19.2836 10.8194C18.8845 10.8971 18.5124 11.0071 18.2248 11.3133C18.171 11.3707 18.1757 11.3787 18.2387 11.3373C18.7174 11.0239 19.4189 10.811 19.9354 11.1136C20.6327 11.5242 21.1518 12.1757 21.4928 13.068C21.5001 13.0863 21.4962 13.0999 21.4809 13.1086L21.45 13.1266C21.4354 13.1353 21.4242 13.131 21.4162 13.1134ZM34.1253 11.8803C34.1651 12.2128 34.1581 12.7666 34.0029 13.0608C33.9976 13.0711 33.9989 13.0795 34.0069 13.0859C34.0155 13.0931 34.0225 13.0935 34.0258 13.0871C34.2288 12.7203 34.2925 12.3204 34.2168 11.8874C34.2115 11.854 34.195 11.8404 34.1671 11.8468L34.1412 11.8528C34.1293 11.856 34.124 11.8651 34.1253 11.8803ZM17.3958 15.5055C18.2198 16.1945 19.0268 16.8714 20.0728 16.9265C20.1404 16.9296 20.1461 16.9089 20.0897 16.8643C19.9275 16.7327 19.7065 16.7004 19.5642 16.6071C18.2317 15.7292 18.0058 14.4171 17.4555 12.9161C17.0525 11.8193 15.9926 11.9425 15.2144 12.1841C15.2053 12.187 15.1967 12.1922 15.1893 12.1994C15.182 12.2065 15.1759 12.2155 15.1716 12.2256C15.1673 12.2358 15.1648 12.2469 15.1643 12.2583C15.1638 12.2697 15.1653 12.2811 15.1686 12.2917C15.6304 13.7581 16.0712 15.2137 17.0445 16.3201C17.2833 16.592 17.624 16.8156 18.0665 16.991C18.0884 16.9998 18.0921 16.9934 18.0775 16.9719C17.756 16.5066 17.4764 16.1801 17.3729 15.5223C17.3689 15.4944 17.3766 15.4888 17.3958 15.5055ZM18.5323 13.001C18.5143 13.0811 18.4556 13.1684 18.4696 13.2665C18.4742 13.3008 18.4798 13.3012 18.4865 13.2677C18.5561 12.9272 18.7661 12.6023 19.1164 12.2929C19.2192 12.2028 19.2103 12.1817 19.0895 12.2295C18.8109 12.3396 18.6251 12.5967 18.5323 13.001ZM26.9413 12.7331L27.0139 12.7343C27.0458 12.7343 27.0547 12.7171 27.0408 12.6828C26.8876 12.3085 26.6268 12.4927 26.4865 12.7367C25.9203 13.7246 25.774 15.7029 26.0287 16.832C26.0506 16.9308 26.0606 16.9292 26.0586 16.8272C26.0496 16.4181 25.969 16.0318 26.0088 15.6216C26.1153 14.508 26.178 13.6385 26.8607 12.7737C26.871 12.7605 26.8835 12.7501 26.8974 12.7431C26.9113 12.7361 26.9262 12.7327 26.9413 12.7331ZM20.638 13.6026C20.7087 13.7306 20.7385 13.892 20.7962 14.0392C20.8009 14.0503 20.8085 14.0551 20.8191 14.0535C20.8291 14.0519 20.8393 14.0507 20.85 14.0499C20.8719 14.0483 20.8821 14.034 20.8808 14.0069C20.7803 12.4436 19.0089 11.8635 18.8258 13.6803C18.7552 14.3872 18.8885 15.2233 19.3513 15.7041C19.4256 15.7814 19.4349 15.7719 19.3791 15.6754C19.2982 15.535 19.2488 15.3528 19.2309 15.1288C19.1801 14.4709 19.0716 13.8777 19.4428 13.3167C19.8379 12.7187 20.3663 13.1003 20.638 13.6026ZM27.2896 13.5464C27.2962 13.5934 27.3125 13.6353 27.3384 13.672C27.3609 13.7047 27.3679 13.7003 27.3593 13.6588C27.3228 13.4914 27.2627 13.3375 27.1791 13.1971C27.176 13.1922 27.1716 13.1886 27.1666 13.1871C27.1617 13.1855 27.1564 13.186 27.1516 13.1885C27.1469 13.191 27.143 13.1953 27.1406 13.2008C27.1382 13.2063 27.1374 13.2126 27.1383 13.2187C27.1543 13.3104 27.1911 13.3889 27.2488 13.4543C27.2701 13.4784 27.2844 13.5107 27.2896 13.5464ZM20.1021 14.1776C20.1473 14.1726 20.1879 14.1317 20.2149 14.0641C20.2419 13.9964 20.2532 13.9075 20.2462 13.8168C20.2392 13.7262 20.2145 13.6412 20.1776 13.5807C20.1407 13.5202 20.0946 13.489 20.0494 13.494C20.0042 13.4991 19.9636 13.5399 19.9366 13.6076C19.9096 13.6752 19.8983 13.7642 19.9053 13.8548C19.9123 13.9455 19.937 14.0304 19.9739 14.091C20.0108 14.1515 20.0569 14.1827 20.1021 14.1776ZM26.4686 14.325C26.4168 14.3864 26.3956 14.4506 26.4049 14.5176C26.4102 14.5559 26.4238 14.5606 26.4457 14.5319C26.4815 14.4857 26.5038 14.4179 26.5124 14.3286L26.8308 13.6433C26.8375 13.6289 26.8341 13.6201 26.8209 13.617L26.786 13.6086C26.7754 13.6054 26.7678 13.6098 26.7632 13.6217L26.4686 14.325ZM10.4128 15.5486C10.4068 15.472 10.4755 15.4378 10.6188 15.4457L11.2458 15.3357C11.3396 15.3192 11.4278 15.2719 11.5007 15.1991C11.5735 15.1263 11.6282 15.0308 11.6587 14.9231L11.6777 14.8549C11.7367 14.6476 11.6753 14.5499 11.4936 14.5618C10.9296 14.5993 10.3233 14.5957 9.67442 14.5511C9.46344 14.5367 9.25944 14.5654 9.0624 14.6372C8.6116 14.7999 8.29912 14.7676 7.86523 14.6755C7.85037 14.6723 7.83506 14.675 7.8216 14.6832C7.80814 14.6914 7.79726 14.7046 7.79059 14.7209C7.78396 14.7393 7.78197 14.76 7.78462 14.7831C7.7886 14.8158 7.80685 14.8453 7.83936 14.8716C7.98797 14.9928 8.13093 15.0845 8.26827 15.1467C9.09092 15.5183 9.96566 15.8325 10.8925 16.0892C11.1718 16.1666 11.4793 16.1941 11.815 16.1717C11.943 16.163 12.0253 16.084 12.0618 15.9349L12.0737 15.8859C12.1062 15.7511 12.0641 15.6885 11.9473 15.6981C11.4299 15.7435 10.9184 15.6937 10.4128 15.5486ZM26.7681 14.7735L26.8179 14.7341C26.8326 14.7226 26.8503 14.7184 26.8673 14.7221C26.8844 14.7259 26.8995 14.7375 26.9094 14.7544L27.0348 14.9661C27.07 15.0267 27.0882 15.0199 27.0896 14.9458C27.0916 14.8007 27.0484 14.6842 26.9602 14.5965C26.9464 14.5833 26.9305 14.5736 26.9136 14.568C26.8966 14.5625 26.879 14.5612 26.8617 14.5642C26.7197 14.5913 26.6228 14.6707 26.5711 14.8022C26.3044 15.4832 26.2885 16.1985 26.5233 16.948C26.5261 16.9562 26.5302 16.9637 26.5356 16.9699C26.5409 16.976 26.5473 16.9807 26.5543 16.9837C26.5612 16.9866 26.5687 16.9877 26.576 16.9869C26.5834 16.9862 26.5905 16.9835 26.597 16.9791C27.0458 16.6777 27.1314 15.7376 27.0756 15.2185C27.0604 15.0821 26.9602 14.9673 26.7751 14.874C26.72 14.8461 26.7177 14.8126 26.7681 14.7735ZM24.2056 23.8445C24.2361 23.8493 24.256 23.8592 24.2653 23.8744C24.2832 23.9047 24.2773 23.9238 24.2474 23.9318L24.132 23.9617C22.8214 23.9294 21.6899 23.3553 20.6022 22.5216C20.0737 22.1174 19.5015 21.4296 18.9204 21.0026C18.4779 20.6773 18.108 20.4839 17.8108 20.4225C17.2084 20.2982 16.6143 20.1323 16.0285 19.925C16.0212 19.9226 16.0159 19.9234 16.0125 19.9274C16.0072 19.9322 16.0029 19.9413 15.9996 19.9549C15.9963 19.9684 15.9993 19.9792 16.0086 19.9872C16.3263 20.2599 16.5589 20.4397 16.7062 20.5266C17.9368 21.2466 19.1337 22.0392 20.2967 22.9044C21.9018 24.098 23.6414 24.7355 25.5232 24.1351C26.3366 23.8752 27.0962 23.4705 27.8021 22.9211C28.1892 22.6197 28.6231 22.2334 29.0052 22.0312C29.8531 21.5823 30.7325 21.5536 31.6434 21.9451C32.1151 22.1473 32.6604 22.786 32.553 23.4546C32.5483 23.4809 32.5569 23.496 32.5788 23.5C32.5961 23.504 32.61 23.4952 32.6206 23.4737C33.0336 22.6006 32.6853 21.5767 32.0245 21.0098C31.6915 20.7243 31.3107 20.5234 30.8821 20.407C29.1585 19.9417 27.2936 19.4765 26.1143 17.741C25.6675 17.0831 25.2953 16.1921 24.4843 16.2232C23.8394 16.2483 23.0801 17.119 22.6054 17.6022C21.8411 18.3809 21.054 18.9275 19.9991 19.0997C19.4153 19.1946 18.6135 19.2261 17.5938 19.1942C17.0923 19.1798 16.4305 19.1344 16.0324 19.5805C15.9137 19.7129 15.9343 19.7942 16.0941 19.8245C17.2545 20.0422 18.5691 20.3747 19.5374 21.3662C20.8997 22.762 22.3964 23.811 24.2056 23.8445ZM13.0221 20.1152C13.2145 20.5091 13.5213 20.8451 13.9426 21.1234C14.3115 21.3674 14.6452 21.5409 14.9437 21.6437L15.5906 21.8889C15.6768 21.9447 15.7992 21.991 15.9578 22.0277C16.7493 22.2111 17.5481 22.2673 18.3541 22.1963C18.3707 22.1955 18.379 22.1851 18.379 22.1652L18.378 22.1329C18.378 22.1265 18.3754 22.1233 18.3701 22.1233C18.2626 22.1313 18.1597 22.1134 18.0616 22.0695C17.1613 21.67 16.4036 21.0608 15.7886 20.2419C15.711 20.0394 15.6911 19.86 15.7289 19.7037C15.7448 19.6583 15.7475 19.62 15.7369 19.5889C15.9153 19.2612 16.1509 19.069 16.4434 19.0124C16.9974 18.9047 17.6605 18.8764 18.4327 18.9275C18.4792 18.9307 18.4855 18.9127 18.4517 18.8736C18.0456 18.408 17.5673 18.109 17.0166 17.9766C16.9815 17.9678 16.9805 17.9555 17.0137 17.9395C17.0362 17.9284 17.0614 17.926 17.0893 17.9323C17.7123 18.0579 18.1969 18.3426 18.9353 18.8808C18.9492 18.8912 18.9608 18.888 18.9701 18.8712L18.9851 18.8473C19.003 18.8154 18.9996 18.7875 18.9751 18.7636C18.2612 18.0627 17.6841 17.5265 17.2435 17.1549C16.3111 16.3679 14.8074 15.8978 13.7316 16.5999C12.6887 17.2793 12.2668 18.8581 13.0221 20.1152ZM27.9514 18.8952C28.171 18.3817 28.1242 17.9204 27.8111 17.5113C27.7909 17.4849 27.7631 17.4687 27.7333 17.4661C27.7035 17.4634 27.6741 17.4745 27.6508 17.497L26.9343 18.1787C26.9289 18.1839 26.9246 18.1905 26.9216 18.198C26.9186 18.2055 26.9171 18.2137 26.9172 18.222C26.9173 18.2302 26.919 18.2382 26.9222 18.2455C26.9253 18.2527 26.9298 18.2589 26.9353 18.2637C27.2047 18.4997 27.4813 18.7285 27.7653 18.9502C27.8223 18.9948 27.8635 19.0032 27.8887 18.9753C27.9046 18.9579 27.9188 18.9413 27.9298 18.9273C27.9408 18.9132 27.9482 18.9021 27.9514 18.8952ZM10.5412 32.1966C10.4928 32.2532 10.4593 32.3214 10.4407 32.4011C10.4321 32.4386 10.4423 32.4657 10.4715 32.4824C11.2743 32.9297 11.8624 33.2136 12.2359 33.334C12.9564 33.5649 14.071 33.9285 14.6024 34.5791C14.6276 34.6102 14.6299 34.6437 14.6094 34.6796C14.1267 35.4881 13.5854 36.2117 13.048 37.171L12.7375 37.604C12.6711 37.7291 12.6745 37.8587 12.7474 37.9927C13.6331 39.6062 14.2531 40.7568 15.7001 41.4876C16.748 42.0162 17.6814 42.3284 18.4009 43.5041L20.4927 47.5073C20.5004 47.5218 20.5124 47.5322 20.5262 47.5362C20.5399 47.5402 20.5543 47.5376 20.5663 47.5289L20.5952 47.5085C20.6436 47.4743 20.6543 47.428 20.6271 47.3698L18.7223 43.2888C17.9939 41.6175 17.4562 40.0252 17.1092 38.5118C16.8378 37.3293 16.6786 36.3828 16.6315 35.6723C16.5917 35.0703 16.5436 34.623 16.4872 34.3303C16.4846 34.3184 16.4783 34.3132 16.4683 34.3148L16.4395 34.3208C16.4327 34.3216 16.4266 34.3258 16.4223 34.3322C16.418 34.3387 16.416 34.3471 16.4166 34.3554C16.5479 36.2835 16.8441 38.0824 17.3052 39.7521C17.4771 40.374 17.7395 41.1279 18.0924 42.0138C18.1063 42.0864 18.0672 42.0872 17.975 42.0162C17.8327 41.6048 17.6436 41.1826 17.5202 40.801C16.8866 38.8435 16.4972 36.815 16.3519 34.7155C16.3433 34.5975 16.3419 34.481 16.3479 34.3662C16.3483 34.3581 16.3467 34.35 16.3435 34.3428C16.3403 34.3357 16.3354 34.3297 16.3296 34.3256C16.3237 34.3216 16.317 34.3195 16.3102 34.3197C16.3035 34.3199 16.2969 34.3223 16.2912 34.3267C15.1368 35.2262 14.1297 36.3995 13.2699 37.8468C13.258 37.8818 13.1999 37.9022 13.0957 37.9078C13.0808 37.7905 13.0748 37.6984 13.1316 37.5908C13.316 37.2447 13.5091 36.8907 13.7107 36.5287C14.4223 35.3566 15.3249 34.5767 15.9737 33.4943C16.0573 33.1602 16.0742 32.8193 16.0245 32.4717C15.8812 31.4813 15.5448 30.619 15.6583 29.5581C15.7379 28.8093 15.8596 28.0921 16.0235 27.4063C16.0646 27.2349 16.0334 27.2134 15.9299 27.3418L15.8155 27.4841C15.7916 27.5144 15.7644 27.5399 15.7339 27.5606C15.6768 27.6005 15.6331 27.6547 15.6025 27.7233C15.5917 27.7479 15.5735 27.7663 15.5518 27.7747C15.4748 27.805 15.445 27.7859 15.4622 27.7173C15.6586 27.1033 15.9309 26.5049 16.2792 25.922L16.8345 25.0908C16.842 25.0792 16.8467 25.0654 16.8479 25.0508C16.8491 25.0362 16.8469 25.0215 16.8415 25.0084C16.8361 24.9953 16.8277 24.9843 16.8173 24.9766C16.8069 24.969 16.795 24.965 16.7828 24.9652C16.533 24.9712 16.0414 25.5297 15.8603 25.7331C15.2104 26.4603 14.6989 27.5762 14.3258 28.5438C14.2332 28.783 14.1944 29.0725 14.1227 29.3463C14.0882 29.4779 14.068 29.4751 14.062 29.338C14.0143 28.2233 14.0919 27.1217 14.2949 26.0333C14.3447 25.7677 14.3131 25.753 14.2004 25.989C13.9118 26.5954 13.5157 27.221 13.2789 27.8022C13.036 28.3971 12.8463 29.0019 12.7096 29.6167C12.4741 30.6532 11.9805 31.3872 11.2288 31.8186C11.0019 31.949 10.8427 32.1212 10.6318 32.2707C10.6251 32.2029 10.6331 32.1547 10.6556 32.126C10.9621 31.7421 11.396 31.4466 11.6657 31.0675C12.0041 30.5914 12.2628 30.0548 12.4419 29.4576C12.8446 28.114 13.3369 26.8187 13.9187 25.5716C14.0786 25.2279 14.2478 24.8882 14.4263 24.5525C14.4535 24.5007 14.4438 24.4872 14.3974 24.5119C14.3549 24.5342 14.3181 24.5713 14.2869 24.6231C13.7363 25.5457 13.2308 26.5033 12.7703 27.496C12.4688 28.1431 12.2499 29.3655 11.9374 30.1094C11.7516 30.5544 11.546 30.9148 11.3204 31.1907C11.0895 31.4729 10.6835 31.8521 10.5412 32.1966ZM19.4538 25.9914L18.9612 27.4841C18.9584 27.4927 18.955 27.5073 18.9514 27.5268C18.9478 27.5464 18.944 27.5702 18.9403 27.5965C18.9376 27.6164 18.931 27.6352 18.9204 27.6527C18.9005 27.6846 18.8905 27.6806 18.8905 27.6408C18.8872 27.2971 18.9287 26.9606 19.0149 26.6313C19.0189 26.6161 19.0179 26.6014 19.0119 26.587C19.0086 26.5783 19.0053 26.5695 19.002 26.5607C19.0009 26.5576 18.9992 26.5548 18.9969 26.5528C18.9947 26.5508 18.992 26.5496 18.9892 26.5493C18.9864 26.5491 18.9835 26.5498 18.9811 26.5514C18.9786 26.553 18.9765 26.5554 18.9751 26.5583C18.7223 27.0583 18.5744 27.4446 18.5313 27.7173C18.4019 28.5342 18.2755 29.0725 18.4377 29.7769C18.4311 29.7793 18.4244 29.7821 18.4178 29.7853C18.2128 29.0804 18.1126 28.3795 18.1173 27.6826C18.1186 27.5718 18.0967 27.565 18.0516 27.6623C17.7262 28.3668 17.5908 29.2435 17.4316 30.0389C17.421 30.0899 17.4084 30.0907 17.3938 30.0413L17.2027 29.3894L17.0246 28.0259C17.016 27.9645 17.0001 27.9617 16.9768 28.0175C16.3001 29.6214 16.2384 31.6225 16.4564 33.3675C16.4723 33.4959 16.4932 33.576 16.5191 33.6079C16.952 34.1402 16.9211 34.859 16.9957 35.53C17.1361 36.7882 17.4704 38.0692 17.8655 39.1983C18.6298 41.3811 19.6618 43.65 20.5843 45.8747C20.6314 45.9887 20.6655 45.9832 20.6868 45.858C20.6921 45.8293 20.7023 45.7834 20.7176 45.7204C21.0354 44.4542 21.4099 43.2123 21.8411 41.9947C22.4581 40.252 23.2523 38.312 23.6473 36.6531C23.922 35.5001 24.069 34.6648 24.0882 34.1473C24.1061 33.6697 24.124 33.1917 24.1419 32.7133C24.1529 32.4358 24.1041 32.1595 24.0922 31.8748C24.0835 31.6699 24.0504 31.4785 23.9927 31.3007C23.5508 29.9336 23.4493 28.4194 23.3508 26.9829C23.3428 26.8657 23.3143 26.8581 23.2652 26.9602C22.8572 27.8034 22.6373 29.0246 22.893 30.0018L22.486 28.9433C22.1884 27.7269 22.3218 26.6779 22.5696 25.4221C22.5776 25.383 22.5653 25.3571 22.5328 25.3443C21.8561 25.0796 21.1787 24.8181 20.5007 24.5597C19.9703 24.3588 19.5941 25.5393 19.4538 25.9914ZM8.80764 28.9708L8.92208 29.515L9.144 30.2649L9.74905 32.3604C9.93614 33.1833 10.166 33.8603 10.5531 34.9894C11.1104 36.6136 11.3907 38.3048 11.394 40.0631C11.394 40.0814 11.4017 40.0906 11.4169 40.0906C11.4315 40.0914 11.4405 40.0826 11.4418 40.0643C11.4989 38.9415 11.5002 38.0656 11.4458 37.4365C11.3204 35.9933 10.9293 34.546 10.2725 33.0948C10.2712 33.0924 10.2718 33.0904 10.2745 33.0888C10.2825 33.0832 10.2907 33.0781 10.2994 33.0733C10.308 33.0669 10.3156 33.0685 10.3223 33.0781C11.0497 34.1725 11.5214 35.652 11.8319 36.9892C12.011 37.7594 12.1799 38.8239 12.3384 40.1827C12.438 41.039 12.5693 41.887 12.7325 42.7267C13.2427 45.354 14.2024 47.7123 15.6115 49.8014C15.6175 49.8102 15.6155 49.8145 15.6055 49.8145C15.5969 49.8145 15.5879 49.813 15.5786 49.8098C15.5674 49.8058 15.5561 49.7978 15.5448 49.7858C14.1884 48.2441 13.0281 45.9477 12.425 43.8498C12.4144 43.8131 12.3938 43.8 12.3633 43.8103L12.3394 43.8187C12.333 43.8209 12.3275 43.826 12.324 43.8328C12.3205 43.8397 12.3193 43.8479 12.3205 43.8558C12.6967 45.9313 12.9667 47.2709 13.1306 47.8745C13.2381 48.2716 13.5419 49.0387 14.0421 50.1758C14.0461 50.1837 14.0448 50.1905 14.0382 50.1961L14.0163 50.2104C14.0076 50.2165 13.9974 50.2184 13.9877 50.2157C13.9781 50.213 13.9697 50.206 13.9645 50.1961C13.3336 49.0192 12.7425 47.8207 11.9911 46.7825C11.9241 46.69 11.9019 46.7036 11.9245 46.8232C12.014 47.3016 12.1703 47.7214 12.3942 48.1879C13.256 49.9844 13.7844 51.0788 14.2203 52.6588C14.2209 52.662 14.2199 52.664 14.2173 52.6648L14.1924 52.6695C14.1852 52.6706 14.1779 52.6689 14.1715 52.6646C14.165 52.6603 14.1598 52.6537 14.1566 52.6456C13.7048 51.4599 13.1903 50.3137 12.6131 49.2069C12.5023 48.9948 12.3779 48.827 12.2399 48.7034C12.1729 48.6428 12.1484 48.6619 12.1663 48.7608C12.1994 48.9434 12.2462 49.1284 12.3066 49.3158C12.8765 51.0796 13.5077 52.8107 14.2004 54.5091C14.3397 54.85 14.5785 55.3332 14.7676 55.5389C15.4015 56.2278 16.1857 55.8905 16.7221 55.2674C18.6557 53.0248 17.9471 49.9963 16.5071 47.7633C16.4992 47.7513 16.5002 47.7406 16.5101 47.731L16.5111 47.7298C16.5204 47.7202 16.5294 47.721 16.538 47.7322C17.2585 48.6831 17.8983 49.4557 18.8398 49.9569C19.0836 50.0872 19.3562 50.1064 19.6259 50.1686C19.6416 50.1722 19.6578 50.1708 19.6729 50.1645C19.688 50.1582 19.7015 50.1472 19.7119 50.1326C19.7223 50.118 19.7293 50.1004 19.7322 50.0815C19.7351 50.0626 19.7338 50.0431 19.7284 50.025C19.6681 49.8217 19.5596 49.681 19.403 49.6028C19.2133 49.3812 18.8597 48.9992 18.3422 48.457C17.4193 47.4898 16.6335 46.2571 15.9847 44.7588C16.4093 45.5721 16.9015 46.281 17.4615 46.8854C17.8224 47.2745 18.2808 47.4818 18.8368 47.5073C18.9681 47.5129 19.0069 47.4439 18.9532 47.3004C18.9224 47.2179 18.9104 47.1043 18.8626 47.0062C18.583 46.4333 18.2775 45.8903 18.0327 45.2958C17.7295 44.5567 17.4973 44.0595 17.3361 43.8043C16.8803 43.0843 16.319 42.8606 15.72 42.4755C15.6543 42.4325 15.6407 42.4496 15.6792 42.5269C16.334 43.8426 16.9788 45.3353 17.9242 46.3735C18.0264 46.4851 18.0115 46.5166 17.8794 46.468C17.701 46.4018 17.5102 46.2228 17.3072 45.9309C16.6491 44.9837 16.0805 43.9638 15.6015 42.8714C15.4032 42.4177 15.1099 42.0342 14.7218 41.7208L14.4969 41.4325C13.7671 40.5506 13.1445 39.5679 12.629 38.4843C12.4061 38.0154 12.226 37.7582 12.5146 37.3205C13.0327 36.5375 13.5529 35.766 14.075 35.0061C14.0861 34.9899 14.0941 34.9709 14.0985 34.9506C14.1028 34.9303 14.1034 34.909 14.1002 34.8884C14.0969 34.8677 14.09 34.8482 14.0798 34.8311C14.0696 34.814 14.0564 34.7999 14.0411 34.7896C12.8281 33.9763 11.4537 33.3819 10.1919 32.7695C10.1543 32.7511 10.121 32.7222 10.0947 32.6852C10.0683 32.6481 10.0498 32.6041 10.0405 32.5566C10.0312 32.5092 10.0316 32.4598 10.0415 32.4125C10.0514 32.3653 10.0705 32.3216 10.0974 32.2851C10.3415 31.955 10.5943 31.6225 10.8557 31.2876C11.1748 30.8777 11.4056 30.5261 11.5483 30.2326C12.021 29.2602 12.1951 28.301 12.5215 27.0571C12.5328 27.014 12.5199 26.9953 12.4827 27.0009C12.0223 27.0663 11.5616 27.1205 11.1005 27.1635C10.782 27.1934 10.3561 27.2915 9.98988 27.2784C9.89037 27.2744 9.88671 27.2501 9.97893 27.2054C10.1335 27.1296 10.3067 27.0667 10.4984 27.0164C11.2454 26.8195 11.9772 26.5603 12.6937 26.239C12.8456 26.1704 12.9694 26.0978 13.0649 26.0213C13.1943 25.9168 13.1863 25.8985 13.041 25.9663C12.1324 26.3897 11.197 26.6468 10.2606 26.9542C9.74109 27.1253 8.76087 27.5307 8.72902 28.2268C8.71907 28.4509 8.74528 28.6989 8.80764 28.9708ZM25.1898 31.6248C25.1606 31.5842 25.1222 31.5507 25.0744 31.5244C25.0478 31.5092 25.0319 31.5192 25.0266 31.5543C25.0134 31.638 25.0286 31.7058 25.0724 31.7576C25.2356 31.9478 25.3908 32.1415 25.5779 32.3066C26.3316 32.9724 26.9655 33.773 27.4797 34.7083C27.626 34.975 27.7961 35.1748 27.9782 35.3948C28.028 35.4546 28.0177 35.4873 27.9474 35.4929C27.5858 35.5208 27.3095 35.3298 27.1184 34.92C26.8776 34.4025 26.581 33.9448 26.2288 33.5469L24.9689 32.3018C24.9397 32.2731 24.9228 32.2815 24.9181 32.3269C24.9142 32.3668 24.9215 32.4079 24.94 32.4501C24.8319 32.746 24.7944 32.9939 24.8276 33.1941C24.745 33.9213 24.6624 34.6305 24.5161 35.3326C24.0769 37.4417 23.5379 39.2741 22.899 40.8297C21.9586 43.1166 21.3794 44.8808 20.9365 47.2621C20.8675 47.6337 20.8125 48.0025 20.7714 48.3685C20.7196 48.8266 20.632 49.3146 20.6549 49.7763C20.6556 49.789 20.6609 49.795 20.6708 49.7942C20.6808 49.7934 20.6868 49.787 20.6868 49.7751C20.6848 49.6284 20.703 49.4127 20.7415 49.128C20.9913 47.2586 21.5237 45.2934 22.4412 43.8019C23.309 42.3894 24.4902 41.6466 25.6964 40.7759C26.3684 40.2895 26.8421 39.8976 27.1174 39.6002C27.9494 38.6999 28.5223 37.5753 28.8361 36.2261C28.8769 36.0491 28.8261 35.9414 28.7117 35.8422C27.9905 35.2186 27.4206 34.4436 27.002 33.517C26.7303 32.9166 26.4925 32.5841 26.0735 32.2169C26.0304 32.13 26.1047 32.1272 26.2964 32.2085C26.3555 32.2564 26.4079 32.2616 26.4537 32.2241C27.199 31.6165 27.9583 31.0137 28.8142 30.6931C29.1286 30.5049 29.3877 30.4372 29.5914 30.4898C28.6161 31.0711 27.7384 31.5064 26.8786 32.3939C26.7851 32.4908 26.6617 32.5948 26.6746 32.7491C26.6826 32.8488 26.7117 32.8588 26.7622 32.779C26.9028 32.559 27.0803 32.3696 27.2946 32.2109C28.3076 31.4634 29.3635 30.9778 30.4104 30.3534C30.418 30.3489 30.4247 30.3426 30.4302 30.3348C30.4357 30.327 30.4398 30.3179 30.4422 30.3082C30.4446 30.2984 30.4453 30.2882 30.4443 30.278C30.4433 30.2679 30.4406 30.2582 30.4363 30.2494C30.3991 30.1736 30.3437 30.1365 30.2701 30.1381C29.8879 29.8726 29.3486 29.5676 29.1008 29.1562C28.3644 27.9254 27.8329 27.0906 27.2289 26.404C27.1466 26.3107 27.136 26.3215 27.197 26.4363C27.8111 27.5941 28.4589 28.905 29.3774 29.753C29.4756 29.8439 29.47 29.8551 29.3605 29.7865C28.7515 29.407 28.2177 28.8783 27.7593 28.2005C27.2956 27.5148 26.8129 26.8641 26.3114 26.2486C26.2284 26.1465 26.2085 26.162 26.2517 26.2952C26.5661 27.2628 26.7154 28.246 26.8418 29.3057C26.843 29.315 26.8416 29.3246 26.8378 29.3328C26.834 29.3411 26.8279 29.3475 26.8207 29.3511C26.8134 29.3547 26.8054 29.3552 26.7978 29.3526C26.7903 29.3501 26.7837 29.3445 26.7791 29.3368C26.6696 29.1645 26.5771 28.9182 26.4984 28.783C26.0294 27.9808 25.5494 27.2186 25.0585 26.4961C25.0034 26.4148 24.9855 26.4252 25.0047 26.5272C25.1898 27.5168 25.353 28.5119 25.4943 29.5126C25.5162 29.6681 25.495 29.6773 25.4306 29.5401C25.1689 28.9875 25.0017 28.3034 24.7798 27.7173C24.6365 27.3418 24.4036 26.9829 24.2514 26.6289C24.1161 26.3147 24.0806 26.3299 24.1449 26.6744C24.3705 27.8824 24.6093 29.1187 24.8614 30.3833C24.956 30.857 25.0296 31.3091 25.2943 31.565C25.3381 31.6073 25.3321 31.628 25.2764 31.6272L25.1898 31.6248ZM29.7466 29.2088L30.7458 30.0066C30.8227 30.3726 30.7079 30.6592 30.4014 30.8665C29.2978 31.6141 28.228 32.3485 27.5185 33.6282C27.5008 33.6605 27.4913 33.6984 27.4913 33.7373C27.4913 33.7762 27.5008 33.8143 27.5185 33.8471C27.9305 34.5927 28.4519 35.2043 29.0829 35.6819C29.122 35.7114 29.1568 35.7054 29.1873 35.6639C29.5386 35.1891 29.7844 34.3854 30.0621 33.7766C30.5835 32.6295 30.7627 31.5339 30.901 30.2183C30.9547 29.7064 31.106 29.0701 31.1398 28.4804C31.1906 27.6145 30.9299 27.4339 30.3119 27.197C30.0233 27.087 29.7068 26.8741 29.3625 26.8191C28.7893 26.727 28.228 26.5153 27.6638 26.3574C27.6306 26.3486 27.6256 26.3594 27.6488 26.3897C28.3056 27.264 28.8679 28.3464 29.5755 29.0988C29.6305 29.157 29.6876 29.1937 29.7466 29.2088ZM31.2911 30.4348C30.8632 32.0674 30.7328 33.2539 30.5855 35.0731C30.5507 35.5013 30.5895 35.8685 30.5208 36.3254C30.4784 36.6148 30.4635 36.9118 30.4761 37.2164C30.4762 37.223 30.478 37.2294 30.481 37.2348C30.4841 37.2402 30.4883 37.2445 30.4933 37.2471C30.4983 37.2498 30.5039 37.2506 30.5093 37.2496C30.5147 37.2487 30.5197 37.2458 30.5238 37.2415C30.9249 36.8361 31.2284 36.012 31.4453 35.4379C31.4606 35.3972 31.4742 35.398 31.4861 35.4403C31.5021 35.4961 31.5027 35.5535 31.4881 35.6125C31.4215 35.8924 31.3767 36.1735 31.2861 36.4438C31.1508 36.8488 31.0304 37.2627 30.9249 37.6853C30.9149 37.7244 30.9232 37.7307 30.9498 37.7044C31.1276 37.5314 31.2775 37.3544 31.3996 37.1734C31.8952 36.4378 32.6146 35.4271 33.0406 34.2825C33.0412 34.2793 33.0429 34.2785 33.0455 34.2801L33.0684 34.2909C33.0844 34.298 33.0897 34.3112 33.0844 34.3303C32.7984 35.4371 32.3612 36.4474 31.7728 37.3612C31.6981 37.476 31.6563 37.5968 31.6036 37.7248C31.6009 37.7319 31.6013 37.7387 31.6046 37.7451C31.6099 37.7562 31.6175 37.7614 31.6275 37.7606C31.6348 37.7598 31.6424 37.7535 31.6503 37.7415C31.9257 37.35 32.202 36.9657 32.4793 36.5885C32.4906 36.5727 32.5058 36.5616 32.5228 36.5567C32.5397 36.5518 32.5575 36.5533 32.5738 36.561C32.6077 36.5769 32.6117 36.5985 32.5858 36.6256L31.8663 37.6123C31.6188 37.8547 31.4122 38.1314 31.2463 38.4424C31.0367 38.7063 30.8811 39.0109 30.7796 39.3562C30.7683 39.3945 30.7497 39.4271 30.7239 39.4543C30.6562 39.5236 30.6058 39.607 30.5726 39.7042C30.569 39.7144 30.5686 39.7256 30.5714 39.736C30.5741 39.7464 30.5799 39.7553 30.5877 39.7611C30.5956 39.767 30.6049 39.7694 30.6141 39.7679C30.6234 39.7665 30.6319 39.7613 30.6383 39.7533C30.8652 39.4543 31.2125 39.1887 31.4294 38.9974C31.9787 38.5118 32.548 38.0991 33.1819 37.7917C33.3789 37.6968 33.5663 37.5936 33.7441 37.482C35.0179 36.9342 36.3047 36.4912 37.6043 36.1531C37.8601 36.0862 38.0611 36.3577 38.2741 36.5048C38.091 36.787 37.8621 36.8803 37.6073 37.0358C37.5231 37.0869 37.4279 37.1004 37.3217 37.0765C37.3148 37.0749 37.3078 37.0751 37.301 37.0771C37.2942 37.079 37.2878 37.0827 37.2823 37.0878C37.2769 37.0929 37.2724 37.0993 37.2692 37.1067C37.2661 37.114 37.2643 37.1221 37.264 37.1303C37.2607 37.2172 37.2215 37.2651 37.1466 37.2738C36.8838 37.3057 36.6427 37.3659 36.4231 37.4544C36.1494 37.5657 35.8817 37.4927 35.6419 37.7929C35.2697 37.8049 34.8853 37.9094 34.4885 38.1063C34.3034 38.1095 34.0347 38.1964 33.6824 38.367C33.6466 38.3846 33.5557 38.3922 33.4098 38.3898C33.3958 38.3898 33.3882 38.3977 33.3869 38.4137V38.4149C33.3856 38.4308 33.3915 38.4404 33.4048 38.4436C33.7183 38.5082 34.3482 38.135 34.5442 38.4974C34.5622 38.5309 34.5874 38.5532 34.6199 38.5644C34.7366 38.6059 34.8143 38.6047 34.8527 38.5608L36.1454 38.8921C36.0619 38.9982 35.9514 39.0225 35.8141 38.9651C35.4986 38.8347 35.3095 38.8263 35.0359 39.038C34.0029 38.9639 33.1849 39.2868 32.139 39.7413C31.9923 39.8059 31.853 39.8864 31.721 39.9829C31.4981 40.0666 31.3428 40.2496 31.1209 40.4566C31.0062 40.5626 30.9265 40.7069 30.8821 40.8895C30.8728 40.9286 30.8818 40.9597 30.909 40.9828C30.9249 40.9972 30.9441 41.0032 30.9667 41.0008C30.9952 40.9984 31.0237 40.9769 31.0523 40.9362C31.2719 40.6284 31.5001 40.3393 31.7369 40.069C33.0446 39.3227 34.6955 39.4172 36.1892 39.7138L37.7506 40.148C37.7871 40.1583 37.811 40.1416 37.8223 40.0977C38.0253 39.3219 38.2973 38.5899 38.6383 37.9018C38.8533 37.5047 39.0682 37.11 38.8164 36.738C38.6638 36.5108 38.4661 36.3194 38.2233 36.1639C37.2232 35.5204 36.3863 34.7203 35.4548 33.9643C35.4117 33.9293 35.3852 33.9121 35.3752 33.9129C35.3381 33.9169 35.3307 33.9332 35.3533 33.9619L36.3753 35.2489C36.3461 35.2856 36.3276 35.296 36.3196 35.28C35.4449 35.4152 34.4427 36.0431 33.7541 36.6339C33.7282 36.6379 33.7087 36.6363 33.6954 36.6292C33.6872 36.6249 33.6801 36.6182 33.6746 36.6097C33.6692 36.6013 33.6655 36.5913 33.664 36.5808C33.6626 36.5702 33.6633 36.5594 33.6661 36.5493C33.669 36.5391 33.6739 36.53 33.6805 36.5227C33.9465 36.2181 34.2228 35.9183 34.5094 35.6233C35.5056 34.5947 34.4019 33.3532 33.6665 32.5793L33.0824 31.6272C33.0764 31.6177 33.0681 31.6106 33.0587 31.6069C33.0493 31.6031 33.0391 31.6029 33.0296 31.6063C33.0201 31.6097 33.0117 31.6165 33.0054 31.6258C32.9992 31.6351 32.9955 31.6464 32.9948 31.6583L32.9759 32.1176C32.8187 33.1319 32.6594 33.9811 32.1907 34.865C32.1615 34.9216 32.1502 34.9168 32.1569 34.8506C32.1738 34.6939 32.2335 34.5038 32.2494 34.3877C32.3629 33.5457 32.3967 32.6965 32.3509 31.8401C32.2574 30.9152 32.0142 30.0425 31.6215 29.222C31.6182 29.2148 31.6155 29.2152 31.6135 29.2232L31.2911 30.4348ZM7.8931 36.9282C7.8042 37.0039 7.77766 37.1024 7.81348 37.2236C7.82078 37.2499 7.83571 37.2667 7.85826 37.2738C7.87485 37.2802 7.88978 37.2938 7.90305 37.3145C7.90502 37.3184 7.90637 37.3229 7.90703 37.3277C7.913 37.4106 7.91068 37.4931 7.90006 37.5752C7.89542 37.6111 7.89973 37.6454 7.913 37.6781C7.99261 37.8707 8.02147 38.1171 8.06426 38.2738C8.2613 38.9978 8.58672 39.6676 9.0405 40.2831C9.18646 40.4801 9.23788 40.4494 9.19475 40.191C9.03155 39.2115 9.06737 38.1637 9.08728 37.1877C9.09258 36.9429 9.12609 36.9374 9.18779 37.171C9.34701 37.7738 9.55201 38.6792 9.9242 39.1624C9.93925 39.1818 9.95808 39.1963 9.97897 39.2046C9.99986 39.213 10.0221 39.215 10.0437 39.2103C10.0653 39.2057 10.0856 39.1946 10.1026 39.1781C10.1196 39.1615 10.1329 39.1401 10.1411 39.1158C10.4725 38.1386 9.81971 36.1388 9.5351 35.1676L8.34589 30.0915C8.30144 29.9017 8.27291 29.9053 8.26031 30.1023C8.18467 31.3139 8.20955 32.5733 8.13691 33.8077C8.10407 34.3674 8.13989 35.0958 7.99161 35.6209C7.99029 35.6241 7.99062 35.6257 7.99261 35.6257C7.99394 35.6257 7.99527 35.6257 7.99659 35.6257C7.9974 35.6259 7.99824 35.6259 7.99904 35.6256C7.99983 35.6253 8.00056 35.6247 8.00116 35.6238C8.00175 35.623 8.00219 35.622 8.00243 35.6208C8.00268 35.6197 8.00272 35.6185 8.00256 35.6173C7.95612 35.1325 7.9047 34.6481 7.84831 34.1641C7.82741 33.9787 7.73387 33.8411 7.74581 33.6282C7.74581 33.6267 7.74482 33.6255 7.74283 33.6247C7.74283 33.6247 7.74117 33.6247 7.73984 33.6247C7.73719 33.6239 7.73553 33.6259 7.73487 33.6306C7.64995 34.7533 7.70269 35.8525 7.8931 36.9282ZM30.0959 35.1999C30.0044 35.7501 30.0213 36.134 29.9556 36.5933C29.876 37.1506 29.8899 37.653 29.8939 38.1948C29.8939 38.2076 29.8992 38.2139 29.9098 38.2139H29.9447L29.9457 38.2127C29.9815 37.6949 29.9307 37.2045 30.0153 36.6866C30.1019 36.1567 30.1178 35.6029 30.2183 35.0731C30.3689 34.2861 30.5179 33.4991 30.6651 32.7121C30.6691 32.6913 30.6668 32.6746 30.6582 32.6618C30.6436 32.6411 30.6323 32.6435 30.6243 32.669C30.3606 33.5074 30.2402 34.3291 30.0959 35.1999ZM6.56656 36.1316C6.50353 36.24 6.4551 36.3521 6.42127 36.4677C6.4178 36.4794 6.4168 36.492 6.41836 36.5043C6.41991 36.5166 6.42397 36.5282 6.43018 36.5382C6.43639 36.5481 6.44455 36.556 6.45393 36.5613C6.46331 36.5665 6.47363 36.5689 6.48396 36.5682C6.52045 36.5658 6.55163 36.5482 6.57751 36.5155C6.85217 36.1615 7.07309 35.9271 7.2353 35.4642C7.38523 35.0384 7.48243 34.6868 7.52688 34.4093C7.61777 33.8471 7.58327 33.836 7.42338 34.3758C7.26416 34.9128 6.886 35.5814 6.56656 36.1316ZM5.1206 37.5824C5.12458 37.6079 5.12226 37.6303 5.11364 37.6494C5.09108 37.6343 5.06885 37.6131 5.04696 37.586C4.58786 37.0247 4.13242 36.4589 3.68062 35.8888C3.55224 35.7261 3.50149 35.5934 3.30047 35.5324C1.94806 35.1209 1.62066 37.3085 1.61767 38.3455C1.61767 38.3798 1.61137 38.4121 1.59876 38.4424L1.50621 38.6744C1.44982 38.8148 1.41864 38.8072 1.41267 38.6517C1.40272 38.3878 1.42229 38.1306 1.47138 37.8802C1.49129 37.779 1.46475 37.7563 1.39177 37.8121C0.908125 38.1793 0.729995 38.9483 0.815578 39.6205C0.889883 40.2058 0.890212 40.7915 0.816571 41.3775C0.815657 41.3852 0.813142 41.3924 0.809261 41.3985C0.805381 41.4047 0.800265 41.4095 0.794392 41.4126C0.788519 41.4158 0.782082 41.417 0.775691 41.4163C0.769299 41.4156 0.763163 41.413 0.757858 41.4086C0.743925 41.3975 0.735633 41.3787 0.732979 41.3524C0.707768 41.0877 0.693172 40.8265 0.689192 40.569C0.68972 40.5658 0.689179 40.5625 0.687686 40.5598C0.686192 40.5571 0.683871 40.5553 0.681232 40.5546C0.678593 40.554 0.675852 40.5547 0.673612 40.5564C0.671373 40.5582 0.669818 40.561 0.669291 40.5642C0.319661 41.5131 0.387662 42.4109 0.873295 43.2577C1.17914 43.792 1.40139 44.2114 1.54005 44.516C1.6535 44.766 1.79879 45.0351 1.96597 45.1487C3.0069 45.8568 4.02129 45.7982 5.00914 44.9729C5.26722 44.7648 5.51767 44.4921 5.76049 44.1548C5.82418 44.0663 5.80891 44.038 5.71471 44.0699L4.88375 44.3509C3.80899 44.4211 2.91303 44.095 2.19585 43.3726C1.95569 43.1302 1.9726 43.1011 2.2466 43.2852C2.81683 43.6704 3.61991 43.9873 4.30856 43.9837C4.79618 43.9814 5.32262 43.9754 5.73262 43.5962C5.85602 43.5643 5.98705 43.4084 6.12571 43.1286C6.26901 42.8407 6.37615 42.5911 6.44714 42.3798C6.45842 42.3463 6.44946 42.3312 6.42027 42.3344L5.12359 42.4707C4.18151 42.3535 3.33663 41.9883 2.58894 41.3751C2.25656 41.1032 2.00412 40.7504 1.83163 40.3166C1.82831 40.3078 1.82864 40.2995 1.83262 40.2915C1.83727 40.2827 1.8439 40.2752 1.85252 40.2688C1.86181 40.2624 1.86978 40.2644 1.87641 40.2748C2.30433 40.8991 2.95217 41.3285 3.59404 41.6646C3.92642 41.8384 4.25449 41.9365 4.57825 41.9588C5.1614 42.1542 5.75783 42.1275 6.36753 41.8787C6.51481 41.8189 6.51182 41.7718 6.35857 41.7375C5.74556 41.5988 5.45597 41.0067 5.039 40.52L2.66656 37.6482C2.65263 37.6315 2.64633 37.6347 2.64765 37.6578L2.68348 38.2893C2.63107 38.318 2.58396 38.2538 2.54216 38.0967L2.51032 37.2523C2.50767 37.1805 2.52757 37.1702 2.57003 37.2212C2.58529 37.2396 2.59789 37.2607 2.60784 37.2846C2.6231 37.3237 2.644 37.3576 2.67054 37.3863L4.4429 39.2749C4.87215 39.782 5.28281 40.3134 5.6749 40.8692C6.74767 42.3906 8.46033 40.3633 7.40149 38.8479C7.12384 38.4508 6.92083 38.068 6.54666 37.7224C6.20034 37.116 5.76646 36.329 5.2649 35.8768C5.25827 35.8705 5.25727 35.8633 5.26191 35.8553L5.28281 35.8194C5.28812 35.8091 5.29508 35.8071 5.30371 35.8134L5.99037 36.329C6.00049 36.3365 6.01255 36.3393 6.02428 36.3369C6.03601 36.3345 6.0466 36.327 6.05405 36.3158L6.07396 36.2859C6.08809 36.2655 6.09497 36.2392 6.09311 36.2126C6.09125 36.186 6.0808 36.1613 6.06401 36.1436C5.84574 35.9155 5.65301 35.7433 5.48582 35.6269C4.99024 35.2836 4.26875 35.4463 3.74928 35.6305C3.71545 35.6424 3.71113 35.6631 3.73635 35.6926C4.23989 36.2907 4.65885 36.9425 5.1206 37.5824ZM33.5312 40.1767L33.3441 40.2078C32.9838 40.1855 32.6239 40.2556 32.2644 40.4183C32.1728 40.4597 32.1194 40.5351 32.1041 40.6443C32.0869 40.736 32.0816 40.803 32.0882 40.8453C32.2803 42.0856 32.8157 43.3546 34.0417 43.6046C34.3392 43.6644 34.8537 43.6835 35.1334 43.5304C35.2415 43.4706 35.352 43.4224 35.4648 43.3857C34.6089 44.3426 33.3192 44.8928 32.1678 44.5602C31.6404 44.3509 31.3916 43.9251 31.0533 43.4563C31.045 43.4446 31.0344 43.4357 31.0224 43.4302C31.0105 43.4247 30.9976 43.4229 30.985 43.4249C30.9723 43.4269 30.9603 43.4327 30.95 43.4417C30.9396 43.4508 30.9314 43.4628 30.9259 43.4766C30.7494 43.9192 30.7318 44.3693 30.8731 44.827C30.8857 44.8668 30.8745 44.8856 30.8393 44.8832C30.7657 44.8792 30.7132 44.831 30.6821 44.7385C30.4343 43.9981 30.287 43.4551 30.3716 42.6274C30.3775 42.5732 30.3653 42.5664 30.3348 42.6071C30.0714 42.9587 29.8896 43.3574 29.7894 43.8031C29.5844 44.7133 29.6332 45.7731 29.9606 46.6629C29.9831 46.7251 30.0113 46.7769 30.0452 46.8184C30.079 46.9021 30.1069 46.9376 30.1288 46.9249C30.071 47.0827 30.0362 47.1262 30.0243 47.0552C29.9055 46.9603 29.803 46.8316 29.7168 46.6689C29.1903 45.8376 28.429 44.6248 28.7425 43.5137C28.7432 43.5113 28.7425 43.5093 28.7405 43.5077C28.7326 43.5013 28.7243 43.495 28.7156 43.4886C28.7142 43.4875 28.7125 43.4868 28.7108 43.4866C28.7091 43.4863 28.7073 43.4864 28.7056 43.487C28.704 43.4876 28.7024 43.4885 28.701 43.4898C28.6997 43.4911 28.6986 43.4927 28.6977 43.4946C28.5514 43.7996 28.4808 44.0603 28.5783 44.4155C28.8118 45.2695 29.1522 46.0537 29.5993 46.7682C30.4134 48.1436 31.2934 49.4462 32.2395 50.6757L33.2376 52.7844C33.246 52.8021 33.259 52.8157 33.2744 52.8226C33.3547 52.8601 33.3786 52.8334 33.3461 52.7425C33.0873 52.0137 32.7798 51.316 32.4236 50.6494L32.0594 50.098C32.1204 50.0127 32.2073 50.0601 32.3201 50.2403C32.5898 50.6709 33.0824 50.7714 33.5252 50.7247C33.6367 50.7128 33.6649 50.6478 33.6098 50.5298C33.4018 50.0908 33.1769 49.6567 33.0067 49.1567C32.9915 49.1129 33.0034 49.0889 33.0426 49.0849C33.0565 49.0834 33.0737 49.0857 33.0943 49.0921C33.1202 49.1152 33.1414 49.1256 33.158 49.1232C33.4167 49.561 34.0646 50.293 34.5592 50.0944C35.008 49.915 35.4727 49.1017 35.6787 48.7213C35.9998 48.1297 36.2851 47.5145 36.5345 46.8758C36.7833 46.2407 36.9296 45.3927 37.2351 44.6691C37.2411 44.6547 37.2385 44.6436 37.2272 44.6356L37.2013 44.6177C37.1973 44.6153 37.194 44.6161 37.1914 44.62C36.6639 45.5769 36.1886 46.5692 35.7653 47.597C35.4797 48.2896 35.1025 48.8912 34.4258 48.9283L33.8805 48.7668C33.4201 48.0779 33.1371 47.621 33.0316 47.3961C32.875 47.0612 32.7162 46.7283 32.5549 46.3974C32.5523 46.391 32.552 46.3842 32.5539 46.3771C32.5573 46.3659 32.5606 46.3551 32.5639 46.3448C32.5651 46.3412 32.5671 46.338 32.5697 46.3356C32.5722 46.3332 32.5752 46.3317 32.5784 46.3311C32.5816 46.3305 32.5849 46.3309 32.5879 46.3322C32.591 46.3336 32.5936 46.3358 32.5957 46.3388C32.8784 46.7335 33.0943 46.9922 33.2436 47.115C33.6247 47.4296 34.4288 47.7071 34.8159 47.2299C35.0614 46.9253 35.2687 46.586 35.4379 46.212C36.1405 44.6595 36.8381 43.1465 37.9128 41.9086C37.9473 41.8687 37.9407 41.8468 37.8929 41.8428C37.7244 41.8284 37.5539 41.8631 37.3814 41.9468C36.233 42.1151 35.0962 41.9397 33.971 41.4206C33.9803 41.4038 33.9697 41.3867 33.9392 41.3692C33.9093 41.3524 33.8785 41.3476 33.8466 41.3548C33.8148 41.362 33.7919 41.3572 33.778 41.3405C33.7607 41.3197 33.764 41.3094 33.7879 41.3094C33.8569 41.3094 33.907 41.2826 33.9382 41.2292L34.6766 41.2137L36.2678 41.1323L37.2361 41.1072L37.463 41.0893C37.4743 41.0884 37.4853 41.0839 37.4947 41.0762C37.5041 41.0686 37.5116 41.0581 37.5164 41.0457C37.5213 41.0334 37.5234 41.0198 37.5224 41.0062C37.5214 40.9926 37.5174 40.9796 37.5108 40.9685C37.3914 40.7675 37.2438 40.6475 37.068 40.6085C36.4898 40.2712 35.9504 40.2185 35.3254 40.1013C34.8246 40.0072 34.2265 40.0324 33.5312 40.1767ZM22.8552 46.3579C22.3868 47.4942 22.0047 48.6691 21.7088 49.8827C21.7019 49.9113 21.7043 49.9419 21.7153 49.9685C21.7264 49.9951 21.7454 50.0157 21.7685 50.0262C21.8587 50.0685 21.9324 50.09 21.9894 50.0908C22.2933 50.4018 22.4598 50.6578 22.489 50.8587C22.5819 51.499 22.4618 52.0464 22.1287 52.5009C21.7605 53.0032 21.459 52.8011 21.0042 52.8561C20.973 52.7891 20.9435 52.7549 20.9157 52.7533C20.8805 52.7517 20.8712 52.7696 20.8878 52.8071C21.5366 54.2687 22.3317 55.6047 23.0841 56.9861C24.118 59.0529 25.1829 61.3063 24.4265 63.7965C24.3828 63.9408 24.341 63.9396 24.3012 63.7929C24.0391 62.8209 23.7379 61.8425 23.3976 60.8578C23.096 59.9835 22.6592 58.9369 22.3108 57.9812C22.2472 57.8066 22.2319 57.8126 22.2651 57.9992C22.6857 60.3706 23.3033 62.6626 24.118 64.8753C24.4066 65.6584 24.6571 66.2113 24.8694 66.5343C25.2963 67.1813 26.0765 66.7974 26.599 66.5092C28.9953 65.1899 30.8682 62.744 32.3878 60.2227C32.6219 59.8335 32.9434 59.1885 33.3521 58.2874C33.3534 58.2835 33.353 58.2803 33.3511 58.2779L33.3341 58.2492C33.3314 58.2449 33.3279 58.2414 33.3238 58.2391C33.3197 58.2368 33.3152 58.2357 33.3107 58.2359C33.3062 58.2362 33.3018 58.2377 33.2979 58.2404C33.2941 58.2432 33.2908 58.247 33.2884 58.2516C32.4783 59.7239 31.4911 61.0527 30.3278 62.1388C30.1745 62.2815 30.157 62.2604 30.2751 62.0754C31.1388 60.7202 32.0584 59.0541 32.4684 57.3772C32.5161 57.1819 32.4674 57.136 32.3221 57.2397C32.3148 57.2445 32.2829 57.2967 32.2265 57.3964C30.9299 59.6785 29.2968 61.7142 27.2209 62.9856C27.1161 63.0502 27.1058 63.033 27.1901 62.9341C27.3712 62.7224 27.5961 62.537 27.7553 62.3122C28.2559 61.6041 28.9575 60.3447 28.8769 59.3711C28.8751 59.3495 28.8692 59.3287 28.8597 59.3103C28.8502 59.2919 28.8373 59.2763 28.8221 59.2648C28.8068 59.2532 28.7896 59.246 28.7716 59.2437C28.7537 59.2414 28.7356 59.2441 28.7186 59.2515C28.6324 59.2889 28.5418 59.3503 28.447 59.4357C27.8545 59.9683 27.2458 60.4722 26.6208 60.9475C26.4702 61.0623 26.3319 61.152 26.2059 61.2166C26.1482 61.2461 26.1395 61.2321 26.18 61.1747C26.9512 60.0767 27.5583 59.029 27.8857 57.6212C27.9354 57.4051 27.8897 57.3701 27.7484 57.516C27.2906 57.9848 26.7413 58.3377 26.2238 58.7061C26.1156 58.7826 25.9976 58.8348 25.8695 58.8627C25.8105 58.8763 25.8045 58.8603 25.8516 58.8149C26.0019 58.6726 26.1621 58.553 26.2835 58.3891C27.1264 57.2469 27.4936 55.9563 27.4896 54.4409C27.4876 53.6228 27.5045 52.7915 27.418 52.0033C27.3715 51.5815 27.3155 51.1769 27.2498 50.7893C27.2299 50.6721 27.2024 50.6693 27.1672 50.781C26.933 51.5233 26.7018 52.2405 26.4736 52.9327C26.2646 53.5666 26.1422 54.2137 25.9959 54.8643C25.9713 54.9743 25.9597 54.9724 25.9611 54.8583C25.967 54.2483 25.9753 53.6256 25.9859 52.9901C26.0009 52.0081 26.1382 50.5346 26.0904 49.2883C26.0755 48.884 25.8785 48.6005 26.0009 48.1436C26.036 48.0097 26.1163 47.745 26.2417 47.3495L26.9154 45.7778C27.1788 45.3903 27.4432 44.9892 27.7085 44.5746C27.9663 44.1703 28.3405 43.65 28.6798 43.4479C28.7787 43.3889 28.8613 43.3235 28.9276 43.2518C29.6428 42.4799 30.4462 41.8723 31.3379 41.429C31.3608 41.4176 31.3816 41.4007 31.3989 41.3793C31.4162 41.3579 31.4296 41.3325 31.4384 41.3046L31.4712 41.1981C31.4911 41.1367 31.4769 41.1216 31.4284 41.1527C30.0541 42.0258 28.9963 42.881 27.8379 44.0974C27.7623 44.1771 27.6853 44.2297 27.607 44.2553C27.4956 44.2919 27.4047 44.3019 27.3344 44.2852L28.5664 41.6825C28.5717 41.6706 28.5694 41.661 28.5594 41.6538C28.5501 41.6466 28.5412 41.649 28.5345 41.661C27.8651 42.8762 27.1284 44.0296 26.3243 45.1212C26.1803 45.3174 25.9859 45.6578 25.7411 46.1426C24.7009 47.6321 24.0152 49.362 23.6842 51.3323C23.6795 51.3595 23.6715 51.361 23.6603 51.3371C23.6536 51.322 23.6513 51.3028 23.6533 51.2797C23.7668 49.9306 24.1031 48.6687 24.5629 47.4368C25.1381 45.8939 26.2288 43.8916 26.8607 41.9827C26.9688 41.655 27.0093 41.3157 26.9821 40.9649C26.9797 40.9321 26.9707 40.9005 26.956 40.8727C26.9413 40.845 26.9213 40.8219 26.8976 40.8055C26.874 40.789 26.8474 40.7797 26.8202 40.7783C26.793 40.7769 26.7659 40.7835 26.7413 40.7974C26.7041 40.8182 26.6547 40.8537 26.593 40.9039C24.8906 42.2953 23.6447 44.1133 22.8552 46.3579ZM7.61081 42.3829C7.60733 42.3725 7.6022 42.3631 7.59569 42.3552C7.58919 42.3472 7.58145 42.3409 7.57291 42.3365C7.56437 42.3321 7.55519 42.3298 7.54592 42.3298C7.53664 42.3297 7.52743 42.3318 7.51883 42.3359L7.51144 42.3395C7.50284 42.3437 7.49501 42.3499 7.48839 42.3577C7.48177 42.3655 7.4765 42.3748 7.47287 42.3851C7.46925 42.3953 7.46734 42.4064 7.46726 42.4175C7.46718 42.4287 7.46893 42.4397 7.4724 42.4501L8.04203 44.1446C8.0455 44.1549 8.05064 44.1643 8.05714 44.1723C8.06365 44.1802 8.07139 44.1866 8.07993 44.1909C8.08847 44.1953 8.09765 44.1976 8.10693 44.1977C8.1162 44.1978 8.12541 44.1957 8.13401 44.1915L8.14139 44.1879C8.15 44.1837 8.15783 44.1776 8.16445 44.1697C8.17107 44.1619 8.17634 44.1526 8.17997 44.1424C8.18359 44.1321 8.1855 44.1211 8.18558 44.1099C8.18566 44.0988 8.18391 44.0877 8.18043 44.0774L7.61081 42.3829ZM8.81858 42.698L8.65936 43.7075C8.65472 43.7378 8.64344 43.7637 8.62553 43.7852C8.60164 43.8147 8.59401 43.8526 8.60264 43.8988C8.60361 43.9029 8.60547 43.9066 8.60804 43.9096C8.6106 43.9125 8.61377 43.9146 8.61722 43.9155C8.62067 43.9165 8.62427 43.9164 8.62765 43.9151C8.63104 43.9139 8.63408 43.9115 8.63647 43.9084C8.7947 43.6752 8.77778 43.4108 8.84147 43.1525C8.88128 42.9914 8.88294 42.8395 8.84645 42.6968C8.83517 42.6513 8.82588 42.6517 8.81858 42.698ZM8.39863 43.5651C8.39332 43.5611 8.39001 43.5552 8.38868 43.5472C8.36944 43.4164 8.324 43.302 8.25234 43.2039C8.24553 43.1946 8.23632 43.1884 8.2262 43.1862C8.21608 43.184 8.20563 43.186 8.19655 43.1918C8.18747 43.1976 8.18027 43.2069 8.17613 43.2182C8.17199 43.2295 8.17115 43.2422 8.17373 43.2541L8.32499 43.9861C8.33362 44.0284 8.3512 44.0348 8.37773 44.0053C8.5363 43.8299 8.60098 43.6122 8.57179 43.3522C8.5711 43.3426 8.56777 43.3336 8.56233 43.3266C8.55688 43.3195 8.54963 43.3149 8.54173 43.3134C8.53384 43.3119 8.52575 43.3136 8.51875 43.3182C8.51175 43.3229 8.50625 43.3302 8.50312 43.3391C8.47526 43.4108 8.45801 43.4858 8.45137 43.5639C8.44872 43.5902 8.43844 43.5962 8.42052 43.5819L8.39863 43.5651ZM5.4689 49.6997C4.86982 50.2308 3.96822 50.043 3.36516 49.5981C3.35454 49.5901 3.34592 49.5925 3.33928 49.6052L3.33828 49.6064C3.33165 49.62 3.33364 49.6307 3.34426 49.6387C3.64479 49.8692 3.96722 50.0223 4.31154 50.098C5.99235 50.4712 6.7009 48.0193 6.78848 46.5278C6.8044 46.2591 6.80108 45.838 6.77852 45.2647C6.75962 44.7923 6.65214 44.3402 6.56457 43.8761C6.54367 43.7661 6.49192 43.6871 6.46008 43.5867C6.45769 43.5792 6.45326 43.5731 6.44753 43.5691C6.4418 43.5652 6.43511 43.5637 6.42859 43.5649C6.42207 43.5662 6.4161 43.5701 6.41169 43.576C6.40728 43.5819 6.40469 43.5895 6.40435 43.5974C6.3934 43.8414 6.46207 44.1213 6.47998 44.3139C6.57021 45.3026 6.56357 46.2291 6.46008 47.0935C6.37051 47.8398 6.01226 49.2189 5.4689 49.6997ZM28.225 49.3337L29.0659 50.6518C29.0699 50.6582 29.0749 50.6598 29.0809 50.6566C29.0888 50.6518 29.0971 50.647 29.1057 50.6422C29.1116 50.6386 29.1165 50.6331 29.1197 50.6262C29.1229 50.6194 29.1243 50.6116 29.1237 50.6039L29.0838 50.1255V49.4067C29.1376 49.315 29.1621 49.3612 29.1575 49.5454C29.1227 50.7786 29.3724 51.8909 30.4671 52.3059C30.4943 52.3163 30.5122 52.3055 30.5208 52.2736L30.6512 51.8203L30.7428 51.6409C30.7899 51.6266 30.8098 51.6373 30.8025 51.6732C30.7972 51.6756 30.7919 51.678 30.7866 51.6804C30.6184 52.2964 30.482 53.6695 31.3219 53.7137C31.4911 53.7233 31.6314 53.624 31.723 53.4625C31.7267 53.456 31.7319 53.4512 31.7381 53.4487C31.7442 53.4461 31.7509 53.4461 31.7572 53.4484C31.7634 53.4508 31.769 53.4555 31.773 53.4619C31.7771 53.4683 31.7794 53.4761 31.7797 53.4841C31.7797 53.488 31.786 53.5028 31.7986 53.5283C31.4981 53.8536 31.1508 53.9872 30.7567 53.929C30.7499 53.9279 30.7431 53.9289 30.7367 53.9319C30.7304 53.935 30.7248 53.9399 30.7205 53.9463C30.7162 53.9526 30.7134 53.9602 30.7122 53.9683C30.7111 53.9764 30.7116 53.9847 30.7139 53.9924C30.7239 54.0291 30.7458 54.0578 30.7796 54.0785C31.1866 54.3297 32.1987 54.4182 32.34 53.6742C32.4206 53.2532 32.4594 52.3 32.2305 51.8598C31.6553 50.7535 30.8084 49.7583 30.075 48.7393C29.6511 48.152 29.3366 47.4942 28.9983 46.8352C28.8639 46.5756 28.634 46.2563 28.3813 46.4751C27.623 47.133 27.7752 48.5204 28.225 49.3337ZM27.7235 48.8075C27.7195 48.7971 27.7135 48.7951 27.7056 48.8015C27.3991 49.0455 27.5016 49.8492 27.6389 50.1351C27.6865 50.2345 27.7509 50.3207 27.8278 50.3883C27.9048 50.4559 27.9926 50.5033 28.0857 50.5274L28.5027 50.635C28.7176 50.6909 28.7548 50.6171 28.6141 50.4138C28.2711 49.9154 27.9743 49.38 27.7235 48.8075ZM20.7594 51.1123C20.8112 51.2151 20.8758 51.2881 20.9535 51.3311C21.0092 51.6238 20.9203 51.6345 20.6868 51.3634C20.6848 51.3609 20.6822 51.359 20.6794 51.3582C20.6766 51.3573 20.6736 51.3575 20.6709 51.3586C20.6681 51.3598 20.6657 51.3619 20.664 51.3646C20.6622 51.3674 20.6611 51.3707 20.6609 51.3742C20.5584 52.2533 21.4361 52.7832 21.9466 52.2067C21.9682 52.1825 21.9816 52.1495 21.9842 52.1142C21.9867 52.0789 21.9783 52.0436 21.9606 52.0153L21.258 50.8934C21.248 50.8766 21.2351 50.8707 21.2192 50.8754C21.2032 50.8802 21.193 50.8862 21.1883 50.8934C21.1538 50.8974 21.1462 50.877 21.1654 50.8324C21.2072 50.8005 21.251 50.777 21.2968 50.7618C21.328 50.7522 21.3575 50.757 21.3854 50.7762C21.7068 51.0046 21.875 51.2426 22.1297 51.5572C22.1563 51.5899 22.1719 51.5839 22.1765 51.5393C22.3178 50.2499 20.9744 49.6638 20.6261 50.9496C20.6211 50.9681 20.6198 50.9877 20.6222 51.0069C20.6247 51.0261 20.6309 51.0443 20.6403 51.0601C20.6497 51.0759 20.662 51.0889 20.6763 51.0979C20.6906 51.107 20.7064 51.1119 20.7226 51.1123H20.7594ZM29.0112 50.7606C28.644 51.0333 28.0529 50.8061 27.6867 50.6614C27.6502 50.647 27.6369 50.6618 27.6469 50.7056C27.7872 51.3264 28.2131 52.1732 28.8301 52.1373C29.4789 52.099 29.1615 51.1996 29.0669 50.7869C29.0583 50.7487 29.0397 50.7399 29.0112 50.7606ZM11.0895 55.8738C11.0298 55.9352 11.0059 56.0189 11.0179 56.125C11.0948 56.8139 11.3008 57.4614 11.6359 58.0674C12.2121 59.4847 13.4888 60.9104 14.7636 61.4941C14.7849 61.5036 14.7878 61.5188 14.7726 61.5395L14.7358 61.5898C14.7325 61.5941 14.7282 61.5974 14.7233 61.5993C14.7185 61.6012 14.7131 61.6016 14.7079 61.6005C13.4348 61.2481 12.3895 60.5113 11.5722 59.3902C10.9293 58.5087 10.369 57.1488 9.87345 56.0018C9.8686 55.9906 9.86146 55.9811 9.85271 55.9741C9.84396 55.9672 9.83387 55.963 9.82341 55.9621C9.81295 55.9611 9.80247 55.9634 9.79294 55.9687C9.78341 55.9739 9.77516 55.982 9.76896 55.9922C9.40274 56.5842 10.6367 58.8376 10.9721 59.3543C10.984 59.3719 10.983 59.3882 10.9691 59.4034L10.9482 59.4249C10.9369 59.4369 10.926 59.4365 10.9154 59.4237C10.6732 59.1279 10.4321 58.8336 10.1919 58.541C9.92221 58.2133 9.64655 57.7133 9.29925 57.388C9.18447 57.2804 9.17783 57.2891 9.27934 57.4143C9.56992 57.7719 9.82468 58.2097 10.1133 58.5554C10.573 59.1067 11.0865 59.6043 11.5055 60.2023C11.682 60.4535 12.0833 60.8988 12.7096 61.5383C13.1674 62.0056 13.6301 62.4657 14.0979 62.9186C14.3815 63.1925 15.2124 64.0537 15.2453 64.4663C15.298 65.1134 14.7756 65.331 14.3825 64.9938C13.7781 64.4731 13.1986 63.9157 12.6439 63.3217C11.6568 62.2627 10.712 61.152 9.80975 59.9894C9.59182 59.7072 9.31218 59.2515 9.0216 58.9417C8.91213 58.8261 8.89787 58.8412 8.97881 58.9871C9.49529 59.9248 10.175 60.792 10.8288 61.5945C11.1413 61.9773 11.5334 62.5442 11.9394 62.9712C12.1915 63.2359 12.4419 63.5027 12.6907 63.7714C13.9983 65.1839 15.4702 66.3908 17.0992 67.2005C17.4903 67.3954 17.8267 67.423 18.0775 66.9421C18.6222 65.896 19.0985 64.806 19.5065 63.6721C19.5098 63.6617 19.5108 63.6538 19.5095 63.6482C19.5068 63.6394 19.5009 63.6326 19.4916 63.6278C19.477 63.6199 19.4647 63.6231 19.4548 63.6374C18.6925 64.7414 18.3004 65.4841 17.769 66.4781C17.6705 66.6634 17.4625 66.8285 17.2704 66.7304C16.3907 66.2831 17.8128 63.0585 18.1252 62.4258C18.8328 60.9953 19.6896 59.688 20.5056 58.3484C20.8692 57.752 21.0294 57.1185 20.9863 56.4479C21.0029 56.2525 20.9817 56.0361 20.9226 55.7984L20.8878 55.1466C20.8875 55.1433 20.8863 55.1401 20.8846 55.1376C20.8828 55.135 20.8804 55.1332 20.8777 55.1323C20.875 55.1314 20.8722 55.1315 20.8695 55.1325C20.8669 55.1336 20.8646 55.1356 20.8629 55.1382C19.8578 56.8091 18.4347 58.126 16.9171 59.2036C16.3618 59.5983 15.6175 59.8411 15.1806 59.0721C14.6681 58.169 14.3914 56.8546 14.1357 55.8092C13.7605 54.2663 13.3157 52.8442 12.7096 51.4089C12.6879 51.3577 12.6533 51.316 12.6109 51.2896C12.5684 51.2632 12.5201 51.2535 12.4728 51.2618C12.3527 51.2825 12.3016 51.3782 12.3195 51.5488C12.4529 52.7939 12.8957 54.1024 13.2361 55.2877C13.313 55.5548 13.3638 55.8 13.3883 56.0233C13.4036 56.1581 13.3867 56.164 13.3376 56.0412C12.8599 54.8571 12.3311 53.6866 11.7513 52.5296C11.5463 52.1182 11.3403 51.4268 11.0457 51.0872C10.9887 51.021 10.9628 51.0357 10.9681 51.1314C11.0149 51.9172 11.2816 52.6887 11.5473 53.4027C11.9387 54.4569 12.3345 55.5082 12.7345 56.5567C12.8135 56.7641 12.8762 56.9634 12.9226 57.1548C12.9544 57.2855 12.9392 57.2943 12.8768 57.1811C12.5305 56.5472 12.0001 55.6441 11.4707 55.1705C11.403 55.1099 11.3529 55.1262 11.3204 55.2195L11.0895 55.8738ZM29.3416 51.8419C29.267 52.1983 29.1565 52.4554 29.0888 52.7772C28.9794 53.2999 29.9884 53.7017 30.2979 53.7747C30.3313 53.7824 30.3657 53.78 30.3981 53.7676C30.4305 53.7552 30.4597 53.7332 30.4832 53.7037C30.5066 53.6742 30.5236 53.6381 30.5324 53.5986C30.5413 53.5592 30.5417 53.5178 30.5338 53.4781C30.4751 53.1922 30.5009 52.6109 30.2303 52.4626C29.9271 52.2968 29.6488 52.0831 29.3953 51.8215C29.3681 51.7936 29.3502 51.8004 29.3416 51.8419ZM30.7637 55.3954C30.6114 55.4899 30.1407 55.8786 30.1745 56.1979C30.1769 56.2193 30.1847 56.2392 30.1968 56.2548C30.2089 56.2705 30.2248 56.2811 30.2422 56.2852C30.7099 56.3965 31.3886 55.9683 31.7489 55.5377C31.7576 55.5271 31.7641 55.5143 31.7679 55.5001C31.7717 55.486 31.7727 55.471 31.7708 55.4563C31.7688 55.4416 31.764 55.4277 31.7568 55.4156C31.7495 55.4036 31.74 55.3938 31.729 55.387C31.4138 55.19 31.0921 55.1928 30.7637 55.3954ZM30.686 58.4956C31.2762 57.888 31.8165 57.083 32.0494 56.174C32.0793 56.056 32.0557 56.0377 31.9787 56.119C31.5442 56.5815 31.0851 57.0443 30.6015 57.5076C30.4373 57.6643 29.8869 58.065 29.7417 57.7349C29.7277 57.703 29.7062 57.6918 29.677 57.7014C29.6272 57.7181 29.597 57.756 29.5864 57.815C29.5685 57.9139 29.5741 58.1475 29.6033 58.5159C29.662 59.2503 30.4492 58.7396 30.686 58.4956ZM28.6977 68.9718C28.8321 69.418 29.5784 69.5029 29.9029 69.4682C30.3255 69.4228 30.7338 69.2649 31.1279 68.9946L32.1628 68.5221C32.1973 68.5062 32.204 68.5158 32.1828 68.5508C32.1741 68.5652 32.1648 68.5764 32.1549 68.5843C31.4752 69.174 30.9428 69.6727 30.2273 69.9957C28.653 70.5279 27.212 70.0148 25.778 69.2015C25.6765 69.1305 25.565 69.0612 25.4436 68.9934C24.2962 68.3475 23.715 66.6515 23.2722 65.3406C23.247 65.2672 23.2373 65.27 23.2433 65.349C23.4443 68.0832 24.9918 70.3055 26.9244 71.6331C28.024 72.389 29.1326 72.7107 30.3646 72.5301C30.419 72.5222 30.42 72.5277 30.3676 72.5469L29.5088 72.8602C28.8958 72.9735 28.292 72.9655 27.6976 72.8363C25.8446 72.4273 24.3051 71.4357 23.1309 69.717C23.1224 69.7049 23.1113 69.6961 23.0987 69.6916C23.0862 69.6871 23.0728 69.6872 23.0603 69.6918C23.0478 69.6964 23.0366 69.7053 23.0283 69.7175C23.02 69.7296 23.0148 69.7444 23.0134 69.7601C22.9348 70.7624 23.6493 71.7635 24.3091 72.267C25.3849 73.0887 26.7343 73.7358 28.0171 73.7872C28.7365 73.8159 29.3565 73.7417 29.9019 73.4391C30.4499 73.1353 30.9985 72.7083 31.5478 72.1582C32.7779 70.9254 33.8234 69.4997 34.6846 67.881C34.8677 67.5378 35.011 67.1706 35.1493 66.8022C35.1582 66.7782 35.1616 66.7518 35.1589 66.7258C35.1562 66.6997 35.1476 66.675 35.134 66.6544C35.1205 66.6338 35.1025 66.6181 35.082 66.6089C35.0616 66.5998 35.0394 66.5975 35.0179 66.6024C34.39 66.7472 34.0606 65.8561 33.9024 65.209C33.6111 64.0154 33.3905 62.8397 33.2406 61.6819C33.2227 61.5399 33.1875 61.5335 33.1351 61.6627C32.9779 62.0518 32.7815 62.4115 32.546 62.7416C31.0025 64.9064 29.1326 66.4589 26.8249 67.478C26.8162 67.482 26.8149 67.4879 26.8209 67.4959L26.8458 67.5318C26.8481 67.5357 26.8515 67.5387 26.8554 67.5404C26.8593 67.5421 26.8635 67.5424 26.8677 67.5414C28.097 67.1969 29.2467 66.6264 30.3168 65.8298C30.3613 65.7963 30.3895 65.7788 30.4014 65.7772C30.4797 65.7636 30.4897 65.7891 30.4313 65.8537C29.7277 66.6324 28.8938 67.0857 28.0509 67.5677C27.8864 67.661 27.894 67.7256 28.0738 67.7614C28.2284 67.7925 28.4393 67.7925 28.7067 67.7614C29.2295 67.7008 29.7416 67.5892 30.2432 67.4265C30.3115 67.4042 30.3261 67.4281 30.287 67.4983C30.2697 67.5294 30.2319 67.5641 30.1735 67.6024C29.7138 67.9078 29.2726 68.2442 28.85 68.6118C28.716 68.7283 28.6652 68.8483 28.6977 68.9718ZM15.1477 71.2049C14.4661 70.5136 13.9784 69.9454 13.1624 69.0436C12.5783 68.3977 12.0986 67.6562 11.5354 66.9852C11.5309 66.9797 11.5249 66.9765 11.5184 66.9763C11.5119 66.9761 11.5055 66.9788 11.5005 66.984L11.4995 66.9852C11.4946 66.9904 11.4916 66.9977 11.491 67.0057C11.4905 67.0137 11.4924 67.0217 11.4965 67.0283C12.7325 68.9958 14.08 70.8138 15.7568 72.2586C16.4464 72.8531 17.4087 73.5683 18.2815 73.5336C18.9701 73.5061 19.4617 72.9942 19.8827 72.3711C20.3922 71.6175 20.8035 70.8768 21.1167 70.1488C21.1578 70.0539 21.1847 69.9841 21.1973 69.9395C21.2311 69.8159 21.2069 69.7999 21.1246 69.8916C20.3584 70.7432 18.997 73.0863 17.8257 72.9224C17.7381 72.9105 17.7368 72.8905 17.8217 72.8626C19.0338 72.4739 19.7822 70.6559 20.1593 69.351C20.1693 69.3167 20.1597 69.304 20.1305 69.3127C18.6557 69.7433 17.3709 69.6249 16.0155 68.6776C15.7959 68.5245 15.8112 68.4723 16.0613 68.5209C16.2636 68.56 16.5254 68.6214 16.8465 68.7051C17.1052 68.7729 17.5739 68.7821 18.2526 68.7326C18.2685 68.7318 18.2765 68.7219 18.2765 68.7027V68.7015C18.2765 68.6832 18.2689 68.6728 18.2536 68.6704C16.9141 68.503 15.8245 67.8906 14.6323 67.3045C14.6224 67.2997 14.6118 67.2976 14.6012 67.2984C14.5906 67.2992 14.5803 67.303 14.5711 67.3093C14.5619 67.3157 14.554 67.3244 14.548 67.335C14.5421 67.3456 14.5382 67.3577 14.5367 67.3703C14.4113 68.4073 15.5976 69.7864 16.1887 70.3952C16.2285 70.4358 16.2225 70.4502 16.1708 70.4382C16.0387 70.4071 15.9137 70.3501 15.7956 70.2672C15.0161 69.7202 14.3433 69.0237 13.7774 68.1777C13.5734 67.8727 13.3226 67.6143 13.1435 67.2878C13.0646 67.1451 13.0397 67.1578 13.0689 67.3261C13.0921 67.4648 13.1498 67.6267 13.242 67.8117C13.7768 68.8873 14.3772 69.9072 15.0433 70.8712C15.0957 70.9477 15.1398 71.051 15.1756 71.181C15.1895 71.2296 15.1803 71.2376 15.1477 71.2049Z" fill="white"/>
</svg>
